<mxfile host="app.diagrams.net" agent="Mozilla/5.0 (Macintosh; Intel Mac OS X 10_15_7) AppleWebKit/537.36 (KHTML, like Gecko) Chrome/137.0.0.0 Safari/537.36" version="27.2.0">
  <diagram name="Page-1" id="o0lRAcGs__rJ8MbRSbV8">
    <mxGraphModel grid="1" page="1" gridSize="10" guides="1" tooltips="1" connect="1" arrows="1" fold="1" pageScale="1" pageWidth="850" pageHeight="1100" math="0" shadow="0">
      <root>
        <mxCell id="0" />
        <mxCell id="1" parent="0" />
        <mxCell id="MzqDUtTs7JRf5Kxp3Mxb-5" value="&lt;span style=&quot;caret-color: rgb(0, 0, 0); color: rgb(0, 0, 0); font-family: -webkit-standard; font-size: medium; font-style: normal; font-variant-caps: normal; font-weight: 400; letter-spacing: normal; orphans: auto; text-align: start; text-indent: 0px; text-transform: none; white-space: normal; widows: auto; word-spacing: 0px; -webkit-text-stroke-width: 0px; text-decoration: none; display: inline !important; float: none;&quot;&gt;User&lt;/span&gt;" style="swimlane;fontStyle=1;align=center;verticalAlign=top;childLayout=stackLayout;horizontal=1;startSize=26;horizontalStack=0;resizeParent=1;resizeParentMax=0;resizeLast=0;collapsible=1;marginBottom=0;whiteSpace=wrap;html=1;labelBackgroundColor=none;" vertex="1" parent="1">
          <mxGeometry x="-600" y="40" width="230" height="300" as="geometry" />
        </mxCell>
        <mxCell id="MzqDUtTs7JRf5Kxp3Mxb-6" value="&lt;span style=&quot;caret-color: rgb(0, 0, 0); color: rgb(0, 0, 0); font-family: -webkit-standard; font-size: medium; font-style: normal; font-variant-caps: normal; font-weight: 400; letter-spacing: normal; text-align: start; text-indent: 0px; text-transform: none; white-space: normal; word-spacing: 0px; -webkit-text-stroke-width: 0px; text-decoration: none; float: none; display: inline !important;&quot;&gt;- id: String&amp;nbsp;&lt;/span&gt;&lt;div&gt;&lt;span style=&quot;caret-color: rgb(0, 0, 0); color: rgb(0, 0, 0); font-family: -webkit-standard; font-size: medium; font-style: normal; font-variant-caps: normal; font-weight: 400; letter-spacing: normal; text-align: start; text-indent: 0px; text-transform: none; white-space: normal; word-spacing: 0px; -webkit-text-stroke-width: 0px; text-decoration: none; float: none; display: inline !important;&quot;&gt;- email: String&amp;nbsp;&lt;/span&gt;&lt;/div&gt;&lt;div&gt;&lt;span style=&quot;caret-color: rgb(0, 0, 0); color: rgb(0, 0, 0); font-family: -webkit-standard; font-size: medium; font-style: normal; font-variant-caps: normal; font-weight: 400; letter-spacing: normal; text-align: start; text-indent: 0px; text-transform: none; white-space: normal; word-spacing: 0px; -webkit-text-stroke-width: 0px; text-decoration: none; float: none; display: inline !important;&quot;&gt;- password: String&amp;nbsp;&lt;/span&gt;&lt;/div&gt;&lt;div&gt;&lt;span style=&quot;caret-color: rgb(0, 0, 0); color: rgb(0, 0, 0); font-family: -webkit-standard; font-size: medium; font-style: normal; font-variant-caps: normal; font-weight: 400; letter-spacing: normal; text-align: start; text-indent: 0px; text-transform: none; white-space: normal; word-spacing: 0px; -webkit-text-stroke-width: 0px; text-decoration: none; float: none; display: inline !important;&quot;&gt;- firstName: String&lt;/span&gt;&lt;/div&gt;&lt;div&gt;&lt;span style=&quot;caret-color: rgb(0, 0, 0); color: rgb(0, 0, 0); font-family: -webkit-standard; font-size: medium; font-style: normal; font-variant-caps: normal; font-weight: 400; letter-spacing: normal; text-align: start; text-indent: 0px; text-transform: none; white-space: normal; word-spacing: 0px; -webkit-text-stroke-width: 0px; text-decoration: none; float: none; display: inline !important;&quot;&gt;&amp;nbsp;- lastName: String&amp;nbsp;&lt;/span&gt;&lt;/div&gt;&lt;div&gt;&lt;span style=&quot;caret-color: rgb(0, 0, 0); color: rgb(0, 0, 0); font-family: -webkit-standard; font-size: medium; font-style: normal; font-variant-caps: normal; font-weight: 400; letter-spacing: normal; text-align: start; text-indent: 0px; text-transform: none; white-space: normal; word-spacing: 0px; -webkit-text-stroke-width: 0px; text-decoration: none; float: none; display: inline !important;&quot;&gt;- phone String&amp;nbsp;&lt;/span&gt;&lt;/div&gt;&lt;div&gt;&lt;span style=&quot;caret-color: rgb(0, 0, 0); color: rgb(0, 0, 0); font-family: -webkit-standard; font-size: medium; font-style: normal; font-variant-caps: normal; font-weight: 400; letter-spacing: normal; text-align: start; text-indent: 0px; text-transform: none; white-space: normal; word-spacing: 0px; -webkit-text-stroke-width: 0px; text-decoration: none; float: none; display: inline !important;&quot;&gt;- createdAt: Date&lt;/span&gt;&lt;/div&gt;&lt;div&gt;&lt;span style=&quot;caret-color: rgb(0, 0, 0); color: rgb(0, 0, 0); font-family: -webkit-standard; font-size: medium; font-style: normal; font-variant-caps: normal; font-weight: 400; letter-spacing: normal; text-align: start; text-indent: 0px; text-transform: none; white-space: normal; word-spacing: 0px; -webkit-text-stroke-width: 0px; text-decoration: none; float: none; display: inline !important;&quot;&gt;&amp;nbsp;- isActive: Boolean&lt;/span&gt;&lt;/div&gt;" style="text;strokeColor=none;fillColor=none;align=left;verticalAlign=top;spacingLeft=4;spacingRight=4;overflow=hidden;rotatable=0;points=[[0,0.5],[1,0.5]];portConstraint=eastwest;whiteSpace=wrap;html=1;labelBackgroundColor=none;" vertex="1" parent="MzqDUtTs7JRf5Kxp3Mxb-5">
          <mxGeometry y="26" width="230" height="164" as="geometry" />
        </mxCell>
        <mxCell id="MzqDUtTs7JRf5Kxp3Mxb-7" value="" style="line;strokeWidth=1;fillColor=none;align=left;verticalAlign=middle;spacingTop=-1;spacingLeft=3;spacingRight=3;rotatable=0;labelPosition=right;points=[];portConstraint=eastwest;labelBackgroundColor=none;" vertex="1" parent="MzqDUtTs7JRf5Kxp3Mxb-5">
          <mxGeometry y="190" width="230" height="18" as="geometry" />
        </mxCell>
        <mxCell id="MzqDUtTs7JRf5Kxp3Mxb-8" value="&lt;span style=&quot;caret-color: rgb(0, 0, 0); color: rgb(0, 0, 0); font-style: normal; font-variant-caps: normal; font-weight: 400; letter-spacing: normal; text-align: start; text-indent: 0px; text-transform: none; white-space: normal; word-spacing: 0px; -webkit-text-stroke-width: 0px; text-decoration: none;&quot;&gt;+ login(): Boolean&amp;nbsp;&lt;/span&gt;&lt;div&gt;&lt;span style=&quot;caret-color: rgb(0, 0, 0); color: rgb(0, 0, 0); font-style: normal; font-variant-caps: normal; font-weight: 400; letter-spacing: normal; text-align: start; text-indent: 0px; text-transform: none; white-space: normal; word-spacing: 0px; -webkit-text-stroke-width: 0px; text-decoration: none;&quot;&gt;&amp;nbsp;+ logout(): void&amp;nbsp;&lt;/span&gt;&lt;/div&gt;&lt;div&gt;&lt;span style=&quot;caret-color: rgb(0, 0, 0); color: rgb(0, 0, 0); font-style: normal; font-variant-caps: normal; font-weight: 400; letter-spacing: normal; text-align: start; text-indent: 0px; text-transform: none; white-space: normal; word-spacing: 0px; -webkit-text-stroke-width: 0px; text-decoration: none;&quot;&gt;+ updateProfile(): void&amp;nbsp;&lt;/span&gt;&lt;/div&gt;&lt;div&gt;&lt;span style=&quot;caret-color: rgb(0, 0, 0); color: rgb(0, 0, 0); font-style: normal; font-variant-caps: normal; font-weight: 400; letter-spacing: normal; text-align: start; text-indent: 0px; text-transform: none; white-space: normal; word-spacing: 0px; -webkit-text-stroke-width: 0px; text-decoration: none;&quot;&gt;&amp;nbsp;+ validateEmail(): Boolean&lt;span class=&quot;Apple-converted-space&quot;&gt;&amp;nbsp;&lt;/span&gt;&lt;/span&gt;&lt;/div&gt;" style="text;strokeColor=none;fillColor=none;align=left;verticalAlign=top;spacingLeft=4;spacingRight=4;overflow=hidden;rotatable=0;points=[[0,0.5],[1,0.5]];portConstraint=eastwest;whiteSpace=wrap;html=1;labelBackgroundColor=none;" vertex="1" parent="MzqDUtTs7JRf5Kxp3Mxb-5">
          <mxGeometry y="208" width="230" height="92" as="geometry" />
        </mxCell>
        <mxCell id="MzqDUtTs7JRf5Kxp3Mxb-16" value="&lt;span style=&quot;caret-color: rgb(0, 0, 0); color: rgb(0, 0, 0); font-family: -webkit-standard; font-size: medium; font-style: normal; font-variant-caps: normal; font-weight: 400; letter-spacing: normal; orphans: auto; text-align: start; text-indent: 0px; text-transform: none; white-space: normal; widows: auto; word-spacing: 0px; -webkit-text-stroke-width: 0px; text-decoration: none; display: inline !important; float: none;&quot;&gt;Business&lt;/span&gt;" style="swimlane;fontStyle=1;align=center;verticalAlign=top;childLayout=stackLayout;horizontal=1;startSize=26;horizontalStack=0;resizeParent=1;resizeParentMax=0;resizeLast=0;collapsible=1;marginBottom=0;whiteSpace=wrap;html=1;labelBackgroundColor=none;" vertex="1" parent="1">
          <mxGeometry x="110" y="40" width="210" height="250" as="geometry" />
        </mxCell>
        <mxCell id="MzqDUtTs7JRf5Kxp3Mxb-17" value="&lt;span style=&quot;caret-color: rgb(0, 0, 0); color: rgb(0, 0, 0); font-family: -webkit-standard; font-size: medium;&quot;&gt;- businessName: String&amp;nbsp;&lt;/span&gt;&lt;div&gt;&lt;span style=&quot;caret-color: rgb(0, 0, 0); color: rgb(0, 0, 0); font-family: -webkit-standard; font-size: medium;&quot;&gt;- taxNumber: String&lt;/span&gt;&lt;/div&gt;&lt;div&gt;&lt;span style=&quot;caret-color: rgb(0, 0, 0); color: rgb(0, 0, 0); font-family: -webkit-standard; font-size: medium;&quot;&gt;&amp;nbsp;- businessAddress: String - isVerified: Boolean&lt;/span&gt;&lt;/div&gt;" style="text;strokeColor=none;fillColor=none;align=left;verticalAlign=top;spacingLeft=4;spacingRight=4;overflow=hidden;rotatable=0;points=[[0,0.5],[1,0.5]];portConstraint=eastwest;whiteSpace=wrap;html=1;labelBackgroundColor=none;" vertex="1" parent="MzqDUtTs7JRf5Kxp3Mxb-16">
          <mxGeometry y="26" width="210" height="124" as="geometry" />
        </mxCell>
        <mxCell id="MzqDUtTs7JRf5Kxp3Mxb-18" value="" style="line;strokeWidth=1;fillColor=none;align=left;verticalAlign=middle;spacingTop=-1;spacingLeft=3;spacingRight=3;rotatable=0;labelPosition=right;points=[];portConstraint=eastwest;labelBackgroundColor=none;" vertex="1" parent="MzqDUtTs7JRf5Kxp3Mxb-16">
          <mxGeometry y="150" width="210" height="8" as="geometry" />
        </mxCell>
        <mxCell id="MzqDUtTs7JRf5Kxp3Mxb-19" value="&lt;div&gt;&lt;span style=&quot;caret-color: rgb(0, 0, 0); color: rgb(0, 0, 0); font-family: -webkit-standard; font-size: medium;&quot;&gt;+ addProduct(): void&amp;nbsp;&lt;/span&gt;&lt;/div&gt;&lt;div&gt;&lt;span style=&quot;caret-color: rgb(0, 0, 0); color: rgb(0, 0, 0); font-family: -webkit-standard; font-size: medium;&quot;&gt;+ updateProduct(): void&lt;/span&gt;&lt;/div&gt;&lt;div&gt;&lt;span style=&quot;caret-color: rgb(0, 0, 0); color: rgb(0, 0, 0); font-family: -webkit-standard; font-size: medium;&quot;&gt;&amp;nbsp;+ manageInventory(): void&amp;nbsp;&lt;/span&gt;&lt;/div&gt;&lt;div&gt;&lt;span style=&quot;caret-color: rgb(0, 0, 0); color: rgb(0, 0, 0); font-family: -webkit-standard; font-size: medium;&quot;&gt;+ generateReports(): Report&lt;/span&gt;&lt;/div&gt;" style="text;strokeColor=none;fillColor=none;align=left;verticalAlign=top;spacingLeft=4;spacingRight=4;overflow=hidden;rotatable=0;points=[[0,0.5],[1,0.5]];portConstraint=eastwest;whiteSpace=wrap;html=1;labelBackgroundColor=none;" vertex="1" parent="MzqDUtTs7JRf5Kxp3Mxb-16">
          <mxGeometry y="158" width="210" height="92" as="geometry" />
        </mxCell>
        <mxCell id="MzqDUtTs7JRf5Kxp3Mxb-20" value="&lt;span style=&quot;caret-color: rgb(0, 0, 0); color: rgb(0, 0, 0); font-family: -webkit-standard; font-size: medium; font-style: normal; font-variant-caps: normal; font-weight: 400; letter-spacing: normal; orphans: auto; text-align: start; text-indent: 0px; text-transform: none; white-space: normal; widows: auto; word-spacing: 0px; -webkit-text-stroke-width: 0px; text-decoration: none; display: inline !important; float: none;&quot;&gt;Product&lt;/span&gt;" style="swimlane;fontStyle=1;align=center;verticalAlign=top;childLayout=stackLayout;horizontal=1;startSize=26;horizontalStack=0;resizeParent=1;resizeParentMax=0;resizeLast=0;collapsible=1;marginBottom=0;whiteSpace=wrap;html=1;labelBackgroundColor=none;" vertex="1" parent="1">
          <mxGeometry x="-570" y="390" width="210" height="340" as="geometry" />
        </mxCell>
        <mxCell id="MzqDUtTs7JRf5Kxp3Mxb-21" value="&lt;span style=&quot;caret-color: rgb(0, 0, 0); color: rgb(0, 0, 0); font-family: -webkit-standard; font-size: medium; font-style: normal; font-variant-caps: normal; font-weight: 400; letter-spacing: normal; text-align: start; text-indent: 0px; text-transform: none; white-space: normal; word-spacing: 0px; -webkit-text-stroke-width: 0px; text-decoration: none; float: none; display: inline !important;&quot;&gt;- id: String&amp;nbsp;&lt;/span&gt;&lt;div&gt;&lt;span style=&quot;caret-color: rgb(0, 0, 0); color: rgb(0, 0, 0); font-family: -webkit-standard; font-size: medium; font-style: normal; font-variant-caps: normal; font-weight: 400; letter-spacing: normal; text-align: start; text-indent: 0px; text-transform: none; white-space: normal; word-spacing: 0px; -webkit-text-stroke-width: 0px; text-decoration: none; float: none; display: inline !important;&quot;&gt;- name: String&amp;nbsp;&lt;/span&gt;&lt;/div&gt;&lt;div&gt;&lt;span style=&quot;caret-color: rgb(0, 0, 0); color: rgb(0, 0, 0); font-family: -webkit-standard; font-size: medium; font-style: normal; font-variant-caps: normal; font-weight: 400; letter-spacing: normal; text-align: start; text-indent: 0px; text-transform: none; white-space: normal; word-spacing: 0px; -webkit-text-stroke-width: 0px; text-decoration: none; float: none; display: inline !important;&quot;&gt;- description: String&lt;/span&gt;&lt;/div&gt;&lt;div&gt;&lt;span style=&quot;caret-color: rgb(0, 0, 0); color: rgb(0, 0, 0); font-family: -webkit-standard; font-size: medium; font-style: normal; font-variant-caps: normal; font-weight: 400; letter-spacing: normal; text-align: start; text-indent: 0px; text-transform: none; white-space: normal; word-spacing: 0px; -webkit-text-stroke-width: 0px; text-decoration: none; float: none; display: inline !important;&quot;&gt;&amp;nbsp;- price: Number&amp;nbsp;&lt;/span&gt;&lt;/div&gt;&lt;div&gt;&lt;span style=&quot;caret-color: rgb(0, 0, 0); color: rgb(0, 0, 0); font-family: -webkit-standard; font-size: medium; font-style: normal; font-variant-caps: normal; font-weight: 400; letter-spacing: normal; text-align: start; text-indent: 0px; text-transform: none; white-space: normal; word-spacing: 0px; -webkit-text-stroke-width: 0px; text-decoration: none; float: none; display: inline !important;&quot;&gt;- stock: Number&amp;nbsp;&lt;/span&gt;&lt;/div&gt;&lt;div&gt;&lt;span style=&quot;caret-color: rgb(0, 0, 0); color: rgb(0, 0, 0); font-family: -webkit-standard; font-size: medium; font-style: normal; font-variant-caps: normal; font-weight: 400; letter-spacing: normal; text-align: start; text-indent: 0px; text-transform: none; white-space: normal; word-spacing: 0px; -webkit-text-stroke-width: 0px; text-decoration: none; float: none; display: inline !important;&quot;&gt;- images: String[]&lt;/span&gt;&lt;/div&gt;&lt;div&gt;&lt;span style=&quot;caret-color: rgb(0, 0, 0); color: rgb(0, 0, 0); font-family: -webkit-standard; font-size: medium; font-style: normal; font-variant-caps: normal; font-weight: 400; letter-spacing: normal; text-align: start; text-indent: 0px; text-transform: none; white-space: normal; word-spacing: 0px; -webkit-text-stroke-width: 0px; text-decoration: none; float: none; display: inline !important;&quot;&gt;&amp;nbsp;- sellerId: String&amp;nbsp;&lt;/span&gt;&lt;/div&gt;&lt;div&gt;&lt;span style=&quot;caret-color: rgb(0, 0, 0); color: rgb(0, 0, 0); font-family: -webkit-standard; font-size: medium; font-style: normal; font-variant-caps: normal; font-weight: 400; letter-spacing: normal; text-align: start; text-indent: 0px; text-transform: none; white-space: normal; word-spacing: 0px; -webkit-text-stroke-width: 0px; text-decoration: none; float: none; display: inline !important;&quot;&gt;- categoryId: String&lt;/span&gt;&lt;/div&gt;&lt;div&gt;&lt;span style=&quot;caret-color: rgb(0, 0, 0); color: rgb(0, 0, 0); font-family: -webkit-standard; font-size: medium; font-style: normal; font-variant-caps: normal; font-weight: 400; letter-spacing: normal; text-align: start; text-indent: 0px; text-transform: none; white-space: normal; word-spacing: 0px; -webkit-text-stroke-width: 0px; text-decoration: none; float: none; display: inline !important;&quot;&gt;&amp;nbsp;- isApproved: Boolean&amp;nbsp;&lt;/span&gt;&lt;/div&gt;&lt;div&gt;&lt;span style=&quot;caret-color: rgb(0, 0, 0); color: rgb(0, 0, 0); font-family: -webkit-standard; font-size: medium; font-style: normal; font-variant-caps: normal; font-weight: 400; letter-spacing: normal; text-align: start; text-indent: 0px; text-transform: none; white-space: normal; word-spacing: 0px; -webkit-text-stroke-width: 0px; text-decoration: none; float: none; display: inline !important;&quot;&gt;- rating: Number&lt;/span&gt;&lt;/div&gt;" style="text;strokeColor=none;fillColor=none;align=left;verticalAlign=top;spacingLeft=4;spacingRight=4;overflow=hidden;rotatable=0;points=[[0,0.5],[1,0.5]];portConstraint=eastwest;whiteSpace=wrap;html=1;labelBackgroundColor=none;" vertex="1" parent="MzqDUtTs7JRf5Kxp3Mxb-20">
          <mxGeometry y="26" width="210" height="214" as="geometry" />
        </mxCell>
        <mxCell id="MzqDUtTs7JRf5Kxp3Mxb-22" value="" style="line;strokeWidth=1;fillColor=none;align=left;verticalAlign=middle;spacingTop=-1;spacingLeft=3;spacingRight=3;rotatable=0;labelPosition=right;points=[];portConstraint=eastwest;labelBackgroundColor=none;" vertex="1" parent="MzqDUtTs7JRf5Kxp3Mxb-20">
          <mxGeometry y="240" width="210" height="8" as="geometry" />
        </mxCell>
        <mxCell id="MzqDUtTs7JRf5Kxp3Mxb-23" value="&lt;span style=&quot;caret-color: rgb(0, 0, 0); color: rgb(0, 0, 0); font-family: -webkit-standard; font-size: medium; font-style: normal; font-variant-caps: normal; font-weight: 400; letter-spacing: normal; text-align: start; text-indent: 0px; text-transform: none; white-space: normal; word-spacing: 0px; -webkit-text-stroke-width: 0px; text-decoration: none; float: none; display: inline !important;&quot;&gt;+ updateStock(): void&amp;nbsp;&lt;/span&gt;&lt;div&gt;&lt;span style=&quot;caret-color: rgb(0, 0, 0); color: rgb(0, 0, 0); font-family: -webkit-standard; font-size: medium; font-style: normal; font-variant-caps: normal; font-weight: 400; letter-spacing: normal; text-align: start; text-indent: 0px; text-transform: none; white-space: normal; word-spacing: 0px; -webkit-text-stroke-width: 0px; text-decoration: none; float: none; display: inline !important;&quot;&gt;+ calculateRating():Number&amp;nbsp;&lt;/span&gt;&lt;/div&gt;&lt;div&gt;&lt;span style=&quot;caret-color: rgb(0, 0, 0); color: rgb(0, 0, 0); font-family: -webkit-standard; font-size: medium; font-style: normal; font-variant-caps: normal; font-weight: 400; letter-spacing: normal; text-align: start; text-indent: 0px; text-transform: none; white-space: normal; word-spacing: 0px; -webkit-text-stroke-width: 0px; text-decoration: none; float: none; display: inline !important;&quot;&gt;+ addImages(): void&lt;/span&gt;&lt;/div&gt;&lt;div&gt;&lt;span style=&quot;caret-color: rgb(0, 0, 0); color: rgb(0, 0, 0); font-family: -webkit-standard; font-size: medium; font-style: normal; font-variant-caps: normal; font-weight: 400; letter-spacing: normal; text-align: start; text-indent: 0px; text-transform: none; white-space: normal; word-spacing: 0px; -webkit-text-stroke-width: 0px; text-decoration: none; float: none; display: inline !important;&quot;&gt;&amp;nbsp;+ approve(): void&lt;/span&gt;&lt;/div&gt;" style="text;strokeColor=none;fillColor=none;align=left;verticalAlign=top;spacingLeft=4;spacingRight=4;overflow=hidden;rotatable=0;points=[[0,0.5],[1,0.5]];portConstraint=eastwest;whiteSpace=wrap;html=1;labelBackgroundColor=none;" vertex="1" parent="MzqDUtTs7JRf5Kxp3Mxb-20">
          <mxGeometry y="248" width="210" height="92" as="geometry" />
        </mxCell>
        <mxCell id="MzqDUtTs7JRf5Kxp3Mxb-24" value="&lt;span style=&quot;caret-color: rgb(0, 0, 0); color: rgb(0, 0, 0); font-family: -webkit-standard; font-size: medium; font-style: normal; font-variant-caps: normal; font-weight: 400; letter-spacing: normal; orphans: auto; text-align: start; text-indent: 0px; text-transform: none; white-space: normal; widows: auto; word-spacing: 0px; -webkit-text-stroke-width: 0px; text-decoration: none; display: inline !important; float: none;&quot;&gt;Category&lt;/span&gt;" style="swimlane;fontStyle=1;align=center;verticalAlign=top;childLayout=stackLayout;horizontal=1;startSize=26;horizontalStack=0;resizeParent=1;resizeParentMax=0;resizeLast=0;collapsible=1;marginBottom=0;whiteSpace=wrap;html=1;labelBackgroundColor=none;" vertex="1" parent="1">
          <mxGeometry x="-185" y="400" width="230" height="210" as="geometry" />
        </mxCell>
        <mxCell id="MzqDUtTs7JRf5Kxp3Mxb-25" value="&lt;span style=&quot;caret-color: rgb(0, 0, 0); color: rgb(0, 0, 0); font-family: -webkit-standard; font-size: medium; font-style: normal; font-variant-caps: normal; font-weight: 400; letter-spacing: normal; text-align: start; text-indent: 0px; text-transform: none; white-space: normal; word-spacing: 0px; -webkit-text-stroke-width: 0px; text-decoration: none; float: none; display: inline !important;&quot;&gt;- id: String&amp;nbsp;&lt;/span&gt;&lt;div&gt;&lt;span style=&quot;caret-color: rgb(0, 0, 0); color: rgb(0, 0, 0); font-family: -webkit-standard; font-size: medium; font-style: normal; font-variant-caps: normal; font-weight: 400; letter-spacing: normal; text-align: start; text-indent: 0px; text-transform: none; white-space: normal; word-spacing: 0px; -webkit-text-stroke-width: 0px; text-decoration: none; float: none; display: inline !important;&quot;&gt;- name: String&amp;nbsp;&lt;/span&gt;&lt;/div&gt;&lt;div&gt;&lt;span style=&quot;caret-color: rgb(0, 0, 0); color: rgb(0, 0, 0); font-family: -webkit-standard; font-size: medium; font-style: normal; font-variant-caps: normal; font-weight: 400; letter-spacing: normal; text-align: start; text-indent: 0px; text-transform: none; white-space: normal; word-spacing: 0px; -webkit-text-stroke-width: 0px; text-decoration: none; float: none; display: inline !important;&quot;&gt;- description: String&amp;nbsp;&lt;/span&gt;&lt;/div&gt;&lt;div&gt;&lt;span style=&quot;caret-color: rgb(0, 0, 0); color: rgb(0, 0, 0); font-family: -webkit-standard; font-size: medium; font-style: normal; font-variant-caps: normal; font-weight: 400; letter-spacing: normal; text-align: start; text-indent: 0px; text-transform: none; white-space: normal; word-spacing: 0px; -webkit-text-stroke-width: 0px; text-decoration: none; float: none; display: inline !important;&quot;&gt;- parentId: String&lt;/span&gt;&lt;/div&gt;" style="text;strokeColor=none;fillColor=none;align=left;verticalAlign=top;spacingLeft=4;spacingRight=4;overflow=hidden;rotatable=0;points=[[0,0.5],[1,0.5]];portConstraint=eastwest;whiteSpace=wrap;html=1;labelBackgroundColor=none;" vertex="1" parent="MzqDUtTs7JRf5Kxp3Mxb-24">
          <mxGeometry y="26" width="230" height="94" as="geometry" />
        </mxCell>
        <mxCell id="MzqDUtTs7JRf5Kxp3Mxb-26" value="" style="line;strokeWidth=1;fillColor=none;align=left;verticalAlign=middle;spacingTop=-1;spacingLeft=3;spacingRight=3;rotatable=0;labelPosition=right;points=[];portConstraint=eastwest;labelBackgroundColor=none;" vertex="1" parent="MzqDUtTs7JRf5Kxp3Mxb-24">
          <mxGeometry y="120" width="230" height="8" as="geometry" />
        </mxCell>
        <mxCell id="MzqDUtTs7JRf5Kxp3Mxb-27" value="&lt;span style=&quot;caret-color: rgb(0, 0, 0); color: rgb(0, 0, 0); font-family: -webkit-standard; font-size: medium; font-style: normal; font-variant-caps: normal; font-weight: 400; letter-spacing: normal; text-align: start; text-indent: 0px; text-transform: none; white-space: normal; word-spacing: 0px; -webkit-text-stroke-width: 0px; text-decoration: none; float: none; display: inline !important;&quot;&gt;+ addProduct(): void&amp;nbsp;&lt;/span&gt;&lt;div&gt;&lt;span style=&quot;caret-color: rgb(0, 0, 0); color: rgb(0, 0, 0); font-family: -webkit-standard; font-size: medium; font-style: normal; font-variant-caps: normal; font-weight: 400; letter-spacing: normal; text-align: start; text-indent: 0px; text-transform: none; white-space: normal; word-spacing: 0px; -webkit-text-stroke-width: 0px; text-decoration: none; float: none; display: inline !important;&quot;&gt;+ removeProduct(): void&amp;nbsp;&lt;/span&gt;&lt;/div&gt;&lt;div&gt;&lt;span style=&quot;caret-color: rgb(0, 0, 0); color: rgb(0, 0, 0); font-family: -webkit-standard; font-size: medium; font-style: normal; font-variant-caps: normal; font-weight: 400; letter-spacing: normal; text-align: start; text-indent: 0px; text-transform: none; white-space: normal; word-spacing: 0px; -webkit-text-stroke-width: 0px; text-decoration: none; float: none; display: inline !important;&quot;&gt;+ getSubCategories(): Category[]&lt;/span&gt;&lt;/div&gt;" style="text;strokeColor=none;fillColor=none;align=left;verticalAlign=top;spacingLeft=4;spacingRight=4;overflow=hidden;rotatable=0;points=[[0,0.5],[1,0.5]];portConstraint=eastwest;whiteSpace=wrap;html=1;labelBackgroundColor=none;" vertex="1" parent="MzqDUtTs7JRf5Kxp3Mxb-24">
          <mxGeometry y="128" width="230" height="82" as="geometry" />
        </mxCell>
        <mxCell id="MzqDUtTs7JRf5Kxp3Mxb-32" value="&lt;span style=&quot;caret-color: rgb(0, 0, 0); color: rgb(0, 0, 0); font-family: -webkit-standard; font-size: medium; font-style: normal; font-variant-caps: normal; font-weight: 400; letter-spacing: normal; orphans: auto; text-align: start; text-indent: 0px; text-transform: none; white-space: normal; widows: auto; word-spacing: 0px; -webkit-text-stroke-width: 0px; text-decoration: none; display: inline !important; float: none;&quot;&gt;Cart&lt;/span&gt;" style="swimlane;fontStyle=1;align=center;verticalAlign=top;childLayout=stackLayout;horizontal=1;startSize=26;horizontalStack=0;resizeParent=1;resizeParentMax=0;resizeLast=0;collapsible=1;marginBottom=0;whiteSpace=wrap;html=1;labelBackgroundColor=none;" vertex="1" parent="1">
          <mxGeometry x="-185" y="800" width="190" height="270" as="geometry" />
        </mxCell>
        <mxCell id="MzqDUtTs7JRf5Kxp3Mxb-33" value="&lt;span style=&quot;caret-color: rgb(0, 0, 0); color: rgb(0, 0, 0); font-family: -webkit-standard; font-size: medium; font-style: normal; font-variant-caps: normal; font-weight: 400; letter-spacing: normal; text-align: start; text-indent: 0px; text-transform: none; white-space: normal; word-spacing: 0px; -webkit-text-stroke-width: 0px; text-decoration: none; float: none; display: inline !important;&quot;&gt;- customerId: String&lt;/span&gt;&lt;div&gt;&lt;span style=&quot;caret-color: rgb(0, 0, 0); color: rgb(0, 0, 0); font-family: -webkit-standard; font-size: medium; font-style: normal; font-variant-caps: normal; font-weight: 400; letter-spacing: normal; text-align: start; text-indent: 0px; text-transform: none; white-space: normal; word-spacing: 0px; -webkit-text-stroke-width: 0px; text-decoration: none; float: none; display: inline !important;&quot;&gt;- items: CartItem[]&lt;/span&gt;&lt;/div&gt;&lt;div&gt;&lt;span style=&quot;caret-color: rgb(0, 0, 0); color: rgb(0, 0, 0); font-family: -webkit-standard; font-size: medium; font-style: normal; font-variant-caps: normal; font-weight: 400; letter-spacing: normal; text-align: start; text-indent: 0px; text-transform: none; white-space: normal; word-spacing: 0px; -webkit-text-stroke-width: 0px; text-decoration: none; float: none; display: inline !important;&quot;&gt;- totalAmount: Number&amp;nbsp;&lt;/span&gt;&lt;/div&gt;&lt;div&gt;&lt;span style=&quot;caret-color: rgb(0, 0, 0); color: rgb(0, 0, 0); font-family: -webkit-standard; font-size: medium; font-style: normal; font-variant-caps: normal; font-weight: 400; letter-spacing: normal; text-align: start; text-indent: 0px; text-transform: none; white-space: normal; word-spacing: 0px; -webkit-text-stroke-width: 0px; text-decoration: none; float: none; display: inline !important;&quot;&gt;- createdAt: Date&lt;/span&gt;&lt;/div&gt;" style="text;strokeColor=none;fillColor=none;align=left;verticalAlign=top;spacingLeft=4;spacingRight=4;overflow=hidden;rotatable=0;points=[[0,0.5],[1,0.5]];portConstraint=eastwest;whiteSpace=wrap;html=1;labelBackgroundColor=none;" vertex="1" parent="MzqDUtTs7JRf5Kxp3Mxb-32">
          <mxGeometry y="26" width="190" height="94" as="geometry" />
        </mxCell>
        <mxCell id="MzqDUtTs7JRf5Kxp3Mxb-34" value="" style="line;strokeWidth=1;fillColor=none;align=left;verticalAlign=middle;spacingTop=-1;spacingLeft=3;spacingRight=3;rotatable=0;labelPosition=right;points=[];portConstraint=eastwest;labelBackgroundColor=none;" vertex="1" parent="MzqDUtTs7JRf5Kxp3Mxb-32">
          <mxGeometry y="120" width="190" height="8" as="geometry" />
        </mxCell>
        <mxCell id="MzqDUtTs7JRf5Kxp3Mxb-35" value="&lt;span style=&quot;caret-color: rgb(0, 0, 0); color: rgb(0, 0, 0); font-family: -webkit-standard; font-size: medium; font-style: normal; font-variant-caps: normal; font-weight: 400; letter-spacing: normal; text-align: start; text-indent: 0px; text-transform: none; white-space: normal; word-spacing: 0px; -webkit-text-stroke-width: 0px; text-decoration: none; float: none; display: inline !important;&quot;&gt;+ addItem(): void&amp;nbsp;&lt;/span&gt;&lt;div&gt;&lt;span style=&quot;caret-color: rgb(0, 0, 0); color: rgb(0, 0, 0); font-family: -webkit-standard; font-size: medium; font-style: normal; font-variant-caps: normal; font-weight: 400; letter-spacing: normal; text-align: start; text-indent: 0px; text-transform: none; white-space: normal; word-spacing: 0px; -webkit-text-stroke-width: 0px; text-decoration: none; float: none; display: inline !important;&quot;&gt;+ removeItem(): void&amp;nbsp;&lt;/span&gt;&lt;/div&gt;&lt;div&gt;&lt;span style=&quot;caret-color: rgb(0, 0, 0); color: rgb(0, 0, 0); font-family: -webkit-standard; font-size: medium; font-style: normal; font-variant-caps: normal; font-weight: 400; letter-spacing: normal; text-align: start; text-indent: 0px; text-transform: none; white-space: normal; word-spacing: 0px; -webkit-text-stroke-width: 0px; text-decoration: none; float: none; display: inline !important;&quot;&gt;+ updateQuantity(): void&amp;nbsp;&lt;/span&gt;&lt;/div&gt;&lt;div&gt;&lt;span style=&quot;caret-color: rgb(0, 0, 0); color: rgb(0, 0, 0); font-family: -webkit-standard; font-size: medium; font-style: normal; font-variant-caps: normal; font-weight: 400; letter-spacing: normal; text-align: start; text-indent: 0px; text-transform: none; white-space: normal; word-spacing: 0px; -webkit-text-stroke-width: 0px; text-decoration: none; float: none; display: inline !important;&quot;&gt;+ calculateTotal(): Number + checkout(): Order&amp;nbsp;&lt;/span&gt;&lt;/div&gt;&lt;div&gt;&lt;span style=&quot;caret-color: rgb(0, 0, 0); color: rgb(0, 0, 0); font-family: -webkit-standard; font-size: medium; font-style: normal; font-variant-caps: normal; font-weight: 400; letter-spacing: normal; text-align: start; text-indent: 0px; text-transform: none; white-space: normal; word-spacing: 0px; -webkit-text-stroke-width: 0px; text-decoration: none; float: none; display: inline !important;&quot;&gt;+ clear(): void&lt;/span&gt;&lt;/div&gt;" style="text;strokeColor=none;fillColor=none;align=left;verticalAlign=top;spacingLeft=4;spacingRight=4;overflow=hidden;rotatable=0;points=[[0,0.5],[1,0.5]];portConstraint=eastwest;whiteSpace=wrap;html=1;labelBackgroundColor=none;" vertex="1" parent="MzqDUtTs7JRf5Kxp3Mxb-32">
          <mxGeometry y="128" width="190" height="142" as="geometry" />
        </mxCell>
        <mxCell id="MzqDUtTs7JRf5Kxp3Mxb-36" value="&lt;span style=&quot;caret-color: rgb(0, 0, 0); color: rgb(0, 0, 0); font-family: -webkit-standard; font-size: medium; font-style: normal; font-variant-caps: normal; font-weight: 400; letter-spacing: normal; orphans: auto; text-align: start; text-indent: 0px; text-transform: none; white-space: normal; widows: auto; word-spacing: 0px; -webkit-text-stroke-width: 0px; text-decoration: none; display: inline !important; float: none;&quot;&gt;Admin&lt;/span&gt;" style="swimlane;fontStyle=1;align=center;verticalAlign=top;childLayout=stackLayout;horizontal=1;startSize=26;horizontalStack=0;resizeParent=1;resizeParentMax=0;resizeLast=0;collapsible=1;marginBottom=0;whiteSpace=wrap;html=1;labelBackgroundColor=none;" vertex="1" parent="1">
          <mxGeometry x="420" y="40" width="220" height="180" as="geometry" />
        </mxCell>
        <mxCell id="MzqDUtTs7JRf5Kxp3Mxb-37" value="&lt;span style=&quot;caret-color: rgb(0, 0, 0); color: rgb(0, 0, 0); font-family: -webkit-standard; font-size: medium;&quot;&gt;- permissions: String[]&lt;/span&gt;&lt;div&gt;&lt;span style=&quot;caret-color: rgb(0, 0, 0); color: rgb(0, 0, 0); font-family: -webkit-standard; font-size: medium;&quot;&gt;&amp;nbsp;- lastLogin: Date&lt;/span&gt;&lt;/div&gt;" style="text;strokeColor=none;fillColor=none;align=left;verticalAlign=top;spacingLeft=4;spacingRight=4;overflow=hidden;rotatable=0;points=[[0,0.5],[1,0.5]];portConstraint=eastwest;whiteSpace=wrap;html=1;labelBackgroundColor=none;" vertex="1" parent="MzqDUtTs7JRf5Kxp3Mxb-36">
          <mxGeometry y="26" width="220" height="54" as="geometry" />
        </mxCell>
        <mxCell id="MzqDUtTs7JRf5Kxp3Mxb-38" value="" style="line;strokeWidth=1;fillColor=none;align=left;verticalAlign=middle;spacingTop=-1;spacingLeft=3;spacingRight=3;rotatable=0;labelPosition=right;points=[];portConstraint=eastwest;labelBackgroundColor=none;" vertex="1" parent="MzqDUtTs7JRf5Kxp3Mxb-36">
          <mxGeometry y="80" width="220" height="8" as="geometry" />
        </mxCell>
        <mxCell id="MzqDUtTs7JRf5Kxp3Mxb-39" value="&lt;span style=&quot;caret-color: rgb(0, 0, 0); color: rgb(0, 0, 0); font-family: -webkit-standard; font-size: medium;&quot;&gt;+ manageUsers(): void&amp;nbsp;&lt;/span&gt;&lt;div&gt;&lt;span style=&quot;caret-color: rgb(0, 0, 0); color: rgb(0, 0, 0); font-family: -webkit-standard; font-size: medium;&quot;&gt;+ verifyProducts(): void&amp;nbsp;&lt;/span&gt;&lt;/div&gt;&lt;div&gt;&lt;span style=&quot;caret-color: rgb(0, 0, 0); color: rgb(0, 0, 0); font-family: -webkit-standard; font-size: medium;&quot;&gt;+generateSystemReports():void&amp;nbsp;&lt;/span&gt;&lt;/div&gt;&lt;div&gt;&lt;span style=&quot;caret-color: rgb(0, 0, 0); color: rgb(0, 0, 0); font-family: -webkit-standard; font-size: medium;&quot;&gt;+ configureSystem(): void&lt;/span&gt;&lt;/div&gt;" style="text;strokeColor=none;fillColor=none;align=left;verticalAlign=top;spacingLeft=4;spacingRight=4;overflow=hidden;rotatable=0;points=[[0,0.5],[1,0.5]];portConstraint=eastwest;whiteSpace=wrap;html=1;labelBackgroundColor=none;" vertex="1" parent="MzqDUtTs7JRf5Kxp3Mxb-36">
          <mxGeometry y="88" width="220" height="92" as="geometry" />
        </mxCell>
        <mxCell id="MzqDUtTs7JRf5Kxp3Mxb-40" value="&lt;span style=&quot;caret-color: rgb(0, 0, 0); color: rgb(0, 0, 0); font-family: -webkit-standard; font-size: medium; font-style: normal; font-variant-caps: normal; font-weight: 400; letter-spacing: normal; orphans: auto; text-align: start; text-indent: 0px; text-transform: none; white-space: normal; widows: auto; word-spacing: 0px; -webkit-text-stroke-width: 0px; text-decoration: none; display: inline !important; float: none;&quot;&gt;OrderItem&lt;/span&gt;" style="swimlane;fontStyle=1;align=center;verticalAlign=top;childLayout=stackLayout;horizontal=1;startSize=26;horizontalStack=0;resizeParent=1;resizeParentMax=0;resizeLast=0;collapsible=1;marginBottom=0;whiteSpace=wrap;html=1;labelBackgroundColor=none;" vertex="1" parent="1">
          <mxGeometry x="490" y="406" width="190" height="190" as="geometry" />
        </mxCell>
        <mxCell id="MzqDUtTs7JRf5Kxp3Mxb-41" value="&lt;span style=&quot;caret-color: rgb(0, 0, 0); color: rgb(0, 0, 0); font-family: -webkit-standard; font-size: medium; font-style: normal; font-variant-caps: normal; font-weight: 400; letter-spacing: normal; text-align: start; text-indent: 0px; text-transform: none; white-space: normal; word-spacing: 0px; -webkit-text-stroke-width: 0px; text-decoration: none; float: none; display: inline !important;&quot;&gt;- productId: String&lt;/span&gt;&lt;div&gt;&lt;span style=&quot;caret-color: rgb(0, 0, 0); color: rgb(0, 0, 0); font-family: -webkit-standard; font-size: medium; font-style: normal; font-variant-caps: normal; font-weight: 400; letter-spacing: normal; text-align: start; text-indent: 0px; text-transform: none; white-space: normal; word-spacing: 0px; -webkit-text-stroke-width: 0px; text-decoration: none; float: none; display: inline !important;&quot;&gt;&amp;nbsp;- quantity: Number&lt;/span&gt;&lt;/div&gt;&lt;div&gt;&lt;span style=&quot;caret-color: rgb(0, 0, 0); color: rgb(0, 0, 0); font-family: -webkit-standard; font-size: medium; font-style: normal; font-variant-caps: normal; font-weight: 400; letter-spacing: normal; text-align: start; text-indent: 0px; text-transform: none; white-space: normal; word-spacing: 0px; -webkit-text-stroke-width: 0px; text-decoration: none; float: none; display: inline !important;&quot;&gt;&amp;nbsp;- unitPrice: Number&amp;nbsp;&lt;/span&gt;&lt;/div&gt;&lt;div&gt;&lt;span style=&quot;caret-color: rgb(0, 0, 0); color: rgb(0, 0, 0); font-family: -webkit-standard; font-size: medium; font-style: normal; font-variant-caps: normal; font-weight: 400; letter-spacing: normal; text-align: start; text-indent: 0px; text-transform: none; white-space: normal; word-spacing: 0px; -webkit-text-stroke-width: 0px; text-decoration: none; float: none; display: inline !important;&quot;&gt;- totalPrice: Number&lt;/span&gt;&lt;/div&gt;" style="text;strokeColor=none;fillColor=none;align=left;verticalAlign=top;spacingLeft=4;spacingRight=4;overflow=hidden;rotatable=0;points=[[0,0.5],[1,0.5]];portConstraint=eastwest;whiteSpace=wrap;html=1;labelBackgroundColor=none;" vertex="1" parent="MzqDUtTs7JRf5Kxp3Mxb-40">
          <mxGeometry y="26" width="190" height="94" as="geometry" />
        </mxCell>
        <mxCell id="MzqDUtTs7JRf5Kxp3Mxb-42" value="" style="line;strokeWidth=1;fillColor=none;align=left;verticalAlign=middle;spacingTop=-1;spacingLeft=3;spacingRight=3;rotatable=0;labelPosition=right;points=[];portConstraint=eastwest;labelBackgroundColor=none;" vertex="1" parent="MzqDUtTs7JRf5Kxp3Mxb-40">
          <mxGeometry y="120" width="190" height="8" as="geometry" />
        </mxCell>
        <mxCell id="MzqDUtTs7JRf5Kxp3Mxb-43" value="&lt;span style=&quot;caret-color: rgb(0, 0, 0); color: rgb(0, 0, 0); font-family: -webkit-standard; font-size: medium; font-style: normal; font-variant-caps: normal; font-weight: 400; letter-spacing: normal; orphans: auto; text-align: start; text-indent: 0px; text-transform: none; white-space: normal; widows: auto; word-spacing: 0px; -webkit-text-stroke-width: 0px; text-decoration: none; display: inline !important; float: none;&quot;&gt;+ calculateTotal(): Number + updateQuantity(): void&lt;/span&gt;" style="text;strokeColor=none;fillColor=none;align=left;verticalAlign=top;spacingLeft=4;spacingRight=4;overflow=hidden;rotatable=0;points=[[0,0.5],[1,0.5]];portConstraint=eastwest;whiteSpace=wrap;html=1;labelBackgroundColor=none;" vertex="1" parent="MzqDUtTs7JRf5Kxp3Mxb-40">
          <mxGeometry y="128" width="190" height="62" as="geometry" />
        </mxCell>
        <mxCell id="MzqDUtTs7JRf5Kxp3Mxb-44" value="&lt;span style=&quot;caret-color: rgb(0, 0, 0); color: rgb(0, 0, 0); font-family: -webkit-standard; font-size: medium; font-style: normal; font-variant-caps: normal; font-weight: 400; letter-spacing: normal; orphans: auto; text-align: start; text-indent: 0px; text-transform: none; white-space: normal; widows: auto; word-spacing: 0px; -webkit-text-stroke-width: 0px; text-decoration: none; display: inline !important; float: none;&quot;&gt;Order&lt;/span&gt;" style="swimlane;fontStyle=1;align=center;verticalAlign=top;childLayout=stackLayout;horizontal=1;startSize=26;horizontalStack=0;resizeParent=1;resizeParentMax=0;resizeLast=0;collapsible=1;marginBottom=0;whiteSpace=wrap;html=1;labelBackgroundColor=none;" vertex="1" parent="1">
          <mxGeometry x="110" y="396" width="230" height="260" as="geometry" />
        </mxCell>
        <mxCell id="MzqDUtTs7JRf5Kxp3Mxb-45" value="&lt;span style=&quot;caret-color: rgb(0, 0, 0); color: rgb(0, 0, 0); font-family: -webkit-standard; font-size: medium; font-style: normal; font-variant-caps: normal; font-weight: 400; letter-spacing: normal; text-align: start; text-indent: 0px; text-transform: none; white-space: normal; word-spacing: 0px; -webkit-text-stroke-width: 0px; text-decoration: none; float: none; display: inline !important;&quot;&gt;- id: String - customerId: String&amp;nbsp;&lt;/span&gt;&lt;div&gt;&lt;span style=&quot;caret-color: rgb(0, 0, 0); color: rgb(0, 0, 0); font-family: -webkit-standard; font-size: medium; font-style: normal; font-variant-caps: normal; font-weight: 400; letter-spacing: normal; text-align: start; text-indent: 0px; text-transform: none; white-space: normal; word-spacing: 0px; -webkit-text-stroke-width: 0px; text-decoration: none; float: none; display: inline !important;&quot;&gt;- orderItems: OrderItem[]&lt;/span&gt;&lt;/div&gt;&lt;div&gt;&lt;span style=&quot;caret-color: rgb(0, 0, 0); color: rgb(0, 0, 0); font-family: -webkit-standard; font-size: medium; font-style: normal; font-variant-caps: normal; font-weight: 400; letter-spacing: normal; text-align: start; text-indent: 0px; text-transform: none; white-space: normal; word-spacing: 0px; -webkit-text-stroke-width: 0px; text-decoration: none; float: none; display: inline !important;&quot;&gt;&amp;nbsp;- totalAmount: Number&amp;nbsp;&lt;/span&gt;&lt;/div&gt;&lt;div&gt;&lt;span style=&quot;caret-color: rgb(0, 0, 0); color: rgb(0, 0, 0); font-family: -webkit-standard; font-size: medium; font-style: normal; font-variant-caps: normal; font-weight: 400; letter-spacing: normal; text-align: start; text-indent: 0px; text-transform: none; white-space: normal; word-spacing: 0px; -webkit-text-stroke-width: 0px; text-decoration: none; float: none; display: inline !important;&quot;&gt;- status: OrderStatus&amp;nbsp;&lt;/span&gt;&lt;/div&gt;&lt;div&gt;&lt;span style=&quot;caret-color: rgb(0, 0, 0); color: rgb(0, 0, 0); font-family: -webkit-standard; font-size: medium; font-style: normal; font-variant-caps: normal; font-weight: 400; letter-spacing: normal; text-align: start; text-indent: 0px; text-transform: none; white-space: normal; word-spacing: 0px; -webkit-text-stroke-width: 0px; text-decoration: none; float: none; display: inline !important;&quot;&gt;- orderDate: Date&amp;nbsp;&lt;/span&gt;&lt;/div&gt;&lt;div&gt;&lt;span style=&quot;caret-color: rgb(0, 0, 0); color: rgb(0, 0, 0); font-family: -webkit-standard; font-size: medium; font-style: normal; font-variant-caps: normal; font-weight: 400; letter-spacing: normal; text-align: start; text-indent: 0px; text-transform: none; white-space: normal; word-spacing: 0px; -webkit-text-stroke-width: 0px; text-decoration: none; float: none; display: inline !important;&quot;&gt;- shippingAddress: String&lt;/span&gt;&lt;/div&gt;" style="text;strokeColor=none;fillColor=none;align=left;verticalAlign=top;spacingLeft=4;spacingRight=4;overflow=hidden;rotatable=0;points=[[0,0.5],[1,0.5]];portConstraint=eastwest;whiteSpace=wrap;html=1;labelBackgroundColor=none;" vertex="1" parent="MzqDUtTs7JRf5Kxp3Mxb-44">
          <mxGeometry y="26" width="230" height="134" as="geometry" />
        </mxCell>
        <mxCell id="MzqDUtTs7JRf5Kxp3Mxb-46" value="" style="line;strokeWidth=1;fillColor=none;align=left;verticalAlign=middle;spacingTop=-1;spacingLeft=3;spacingRight=3;rotatable=0;labelPosition=right;points=[];portConstraint=eastwest;labelBackgroundColor=none;" vertex="1" parent="MzqDUtTs7JRf5Kxp3Mxb-44">
          <mxGeometry y="160" width="230" height="8" as="geometry" />
        </mxCell>
        <mxCell id="MzqDUtTs7JRf5Kxp3Mxb-47" value="&lt;span style=&quot;caret-color: rgb(0, 0, 0); color: rgb(0, 0, 0); font-family: -webkit-standard; font-size: medium; font-style: normal; font-variant-caps: normal; font-weight: 400; letter-spacing: normal; text-align: start; text-indent: 0px; text-transform: none; white-space: normal; word-spacing: 0px; -webkit-text-stroke-width: 0px; text-decoration: none; float: none; display: inline !important;&quot;&gt;+ calculateTotal(): Number&amp;nbsp;&lt;/span&gt;&lt;div&gt;&lt;span style=&quot;caret-color: rgb(0, 0, 0); color: rgb(0, 0, 0); font-family: -webkit-standard; font-size: medium; font-style: normal; font-variant-caps: normal; font-weight: 400; letter-spacing: normal; text-align: start; text-indent: 0px; text-transform: none; white-space: normal; word-spacing: 0px; -webkit-text-stroke-width: 0px; text-decoration: none; float: none; display: inline !important;&quot;&gt;+ updateStatus(): void&amp;nbsp;&lt;/span&gt;&lt;/div&gt;&lt;div&gt;&lt;span style=&quot;caret-color: rgb(0, 0, 0); color: rgb(0, 0, 0); font-family: -webkit-standard; font-size: medium; font-style: normal; font-variant-caps: normal; font-weight: 400; letter-spacing: normal; text-align: start; text-indent: 0px; text-transform: none; white-space: normal; word-spacing: 0px; -webkit-text-stroke-width: 0px; text-decoration: none; float: none; display: inline !important;&quot;&gt;+ cancelOrder(): void&amp;nbsp;&lt;/span&gt;&lt;/div&gt;&lt;div&gt;&lt;span style=&quot;caret-color: rgb(0, 0, 0); color: rgb(0, 0, 0); font-family: -webkit-standard; font-size: medium; font-style: normal; font-variant-caps: normal; font-weight: 400; letter-spacing: normal; text-align: start; text-indent: 0px; text-transform: none; white-space: normal; word-spacing: 0px; -webkit-text-stroke-width: 0px; text-decoration: none; float: none; display: inline !important;&quot;&gt;+ generateInvoice(): String&lt;/span&gt;&lt;/div&gt;" style="text;strokeColor=none;fillColor=none;align=left;verticalAlign=top;spacingLeft=4;spacingRight=4;overflow=hidden;rotatable=0;points=[[0,0.5],[1,0.5]];portConstraint=eastwest;whiteSpace=wrap;html=1;labelBackgroundColor=none;" vertex="1" parent="MzqDUtTs7JRf5Kxp3Mxb-44">
          <mxGeometry y="168" width="230" height="92" as="geometry" />
        </mxCell>
        <mxCell id="MzqDUtTs7JRf5Kxp3Mxb-52" value="&lt;span style=&quot;caret-color: rgb(0, 0, 0); color: rgb(0, 0, 0); font-family: -webkit-standard; font-size: medium; font-style: normal; font-variant-caps: normal; font-weight: 400; letter-spacing: normal; orphans: auto; text-align: start; text-indent: 0px; text-transform: none; white-space: normal; widows: auto; word-spacing: 0px; -webkit-text-stroke-width: 0px; text-decoration: none; display: inline !important; float: none;&quot;&gt;Payment&lt;/span&gt;" style="swimlane;fontStyle=1;align=center;verticalAlign=top;childLayout=stackLayout;horizontal=1;startSize=26;horizontalStack=0;resizeParent=1;resizeParentMax=0;resizeLast=0;collapsible=1;marginBottom=0;whiteSpace=wrap;html=1;labelBackgroundColor=none;" vertex="1" parent="1">
          <mxGeometry x="-560" y="800" width="210" height="290" as="geometry" />
        </mxCell>
        <mxCell id="MzqDUtTs7JRf5Kxp3Mxb-53" value="&lt;span style=&quot;caret-color: rgb(0, 0, 0); color: rgb(0, 0, 0); font-family: -webkit-standard; font-size: medium; font-style: normal; font-variant-caps: normal; font-weight: 400; letter-spacing: normal; text-align: start; text-indent: 0px; text-transform: none; white-space: normal; word-spacing: 0px; -webkit-text-stroke-width: 0px; text-decoration: none; float: none; display: inline !important;&quot;&gt;- id: String&amp;nbsp;&lt;/span&gt;&lt;div&gt;&lt;span style=&quot;caret-color: rgb(0, 0, 0); color: rgb(0, 0, 0); font-family: -webkit-standard; font-size: medium; font-style: normal; font-variant-caps: normal; font-weight: 400; letter-spacing: normal; text-align: start; text-indent: 0px; text-transform: none; white-space: normal; word-spacing: 0px; -webkit-text-stroke-width: 0px; text-decoration: none; float: none; display: inline !important;&quot;&gt;- orderId: String&amp;nbsp;&lt;/span&gt;&lt;/div&gt;&lt;div&gt;&lt;span style=&quot;caret-color: rgb(0, 0, 0); color: rgb(0, 0, 0); font-family: -webkit-standard; font-size: medium; font-style: normal; font-variant-caps: normal; font-weight: 400; letter-spacing: normal; text-align: start; text-indent: 0px; text-transform: none; white-space: normal; word-spacing: 0px; -webkit-text-stroke-width: 0px; text-decoration: none; float: none; display: inline !important;&quot;&gt;- amount: Number&amp;nbsp;&lt;/span&gt;&lt;/div&gt;&lt;div&gt;&lt;span style=&quot;caret-color: rgb(0, 0, 0); color: rgb(0, 0, 0); font-family: -webkit-standard; font-size: medium; font-style: normal; font-variant-caps: normal; font-weight: 400; letter-spacing: normal; text-align: start; text-indent: 0px; text-transform: none; white-space: normal; word-spacing: 0px; -webkit-text-stroke-width: 0px; text-decoration: none; float: none; display: inline !important;&quot;&gt;- method: PaymentMethod&amp;nbsp;&lt;/span&gt;&lt;/div&gt;&lt;div&gt;&lt;span style=&quot;caret-color: rgb(0, 0, 0); color: rgb(0, 0, 0); font-family: -webkit-standard; font-size: medium; font-style: normal; font-variant-caps: normal; font-weight: 400; letter-spacing: normal; text-align: start; text-indent: 0px; text-transform: none; white-space: normal; word-spacing: 0px; -webkit-text-stroke-width: 0px; text-decoration: none; float: none; display: inline !important;&quot;&gt;- status: PaymentStatus&amp;nbsp;&lt;/span&gt;&lt;/div&gt;&lt;div&gt;&lt;span style=&quot;caret-color: rgb(0, 0, 0); color: rgb(0, 0, 0); font-family: -webkit-standard; font-size: medium; font-style: normal; font-variant-caps: normal; font-weight: 400; letter-spacing: normal; text-align: start; text-indent: 0px; text-transform: none; white-space: normal; word-spacing: 0px; -webkit-text-stroke-width: 0px; text-decoration: none; float: none; display: inline !important;&quot;&gt;- transactionId: String&amp;nbsp;&lt;/span&gt;&lt;/div&gt;&lt;div&gt;&lt;span style=&quot;caret-color: rgb(0, 0, 0); color: rgb(0, 0, 0); font-family: -webkit-standard; font-size: medium; font-style: normal; font-variant-caps: normal; font-weight: 400; letter-spacing: normal; text-align: start; text-indent: 0px; text-transform: none; white-space: normal; word-spacing: 0px; -webkit-text-stroke-width: 0px; text-decoration: none; float: none; display: inline !important;&quot;&gt;- paymentDate: Date&lt;/span&gt;&lt;/div&gt;" style="text;strokeColor=none;fillColor=none;align=left;verticalAlign=top;spacingLeft=4;spacingRight=4;overflow=hidden;rotatable=0;points=[[0,0.5],[1,0.5]];portConstraint=eastwest;whiteSpace=wrap;html=1;labelBackgroundColor=none;" vertex="1" parent="MzqDUtTs7JRf5Kxp3Mxb-52">
          <mxGeometry y="26" width="210" height="164" as="geometry" />
        </mxCell>
        <mxCell id="MzqDUtTs7JRf5Kxp3Mxb-54" value="" style="line;strokeWidth=1;fillColor=none;align=left;verticalAlign=middle;spacingTop=-1;spacingLeft=3;spacingRight=3;rotatable=0;labelPosition=right;points=[];portConstraint=eastwest;labelBackgroundColor=none;" vertex="1" parent="MzqDUtTs7JRf5Kxp3Mxb-52">
          <mxGeometry y="190" width="210" height="8" as="geometry" />
        </mxCell>
        <mxCell id="MzqDUtTs7JRf5Kxp3Mxb-55" value="&lt;span style=&quot;caret-color: rgb(0, 0, 0); color: rgb(0, 0, 0); font-family: -webkit-standard; font-size: medium; font-style: normal; font-variant-caps: normal; font-weight: 400; letter-spacing: normal; text-align: start; text-indent: 0px; text-transform: none; white-space: normal; word-spacing: 0px; -webkit-text-stroke-width: 0px; text-decoration: none; float: none; display: inline !important;&quot;&gt;+ processPayment(): Boolean + refund(): Boolean&amp;nbsp;&lt;/span&gt;&lt;div&gt;&lt;span style=&quot;caret-color: rgb(0, 0, 0); color: rgb(0, 0, 0); font-family: -webkit-standard; font-size: medium; font-style: normal; font-variant-caps: normal; font-weight: 400; letter-spacing: normal; text-align: start; text-indent: 0px; text-transform: none; white-space: normal; word-spacing: 0px; -webkit-text-stroke-width: 0px; text-decoration: none; float: none; display: inline !important;&quot;&gt;+ validatePayment(): Boolean&lt;/span&gt;&lt;/div&gt;" style="text;strokeColor=none;fillColor=none;align=left;verticalAlign=top;spacingLeft=4;spacingRight=4;overflow=hidden;rotatable=0;points=[[0,0.5],[1,0.5]];portConstraint=eastwest;whiteSpace=wrap;html=1;labelBackgroundColor=none;" vertex="1" parent="MzqDUtTs7JRf5Kxp3Mxb-52">
          <mxGeometry y="198" width="210" height="92" as="geometry" />
        </mxCell>
        <mxCell id="MzqDUtTs7JRf5Kxp3Mxb-12" value="&lt;span style=&quot;caret-color: rgb(0, 0, 0); color: rgb(0, 0, 0); font-family: -webkit-standard; font-size: medium; font-style: normal; font-variant-caps: normal; font-weight: 400; letter-spacing: normal; orphans: auto; text-align: start; text-indent: 0px; text-transform: none; white-space: normal; widows: auto; word-spacing: 0px; -webkit-text-stroke-width: 0px; text-decoration: none; display: inline !important; float: none;&quot;&gt;Customer&lt;/span&gt;" style="swimlane;fontStyle=1;align=center;verticalAlign=top;childLayout=stackLayout;horizontal=1;startSize=26;horizontalStack=0;resizeParent=1;resizeParentMax=0;resizeLast=0;collapsible=1;marginBottom=0;whiteSpace=wrap;html=1;labelBackgroundColor=none;" vertex="1" parent="1">
          <mxGeometry x="-185" y="40" width="210" height="210" as="geometry" />
        </mxCell>
        <mxCell id="MzqDUtTs7JRf5Kxp3Mxb-13" value="&lt;span style=&quot;caret-color: rgb(0, 0, 0); color: rgb(0, 0, 0); font-family: -webkit-standard; font-size: medium; font-style: normal; font-variant-caps: normal; font-weight: 400; letter-spacing: normal; text-align: start; text-indent: 0px; text-transform: none; white-space: normal; word-spacing: 0px; -webkit-text-stroke-width: 0px; text-decoration: none; float: none; display: inline !important;&quot;&gt;- address: String&amp;nbsp;&lt;/span&gt;&lt;div&gt;&lt;span style=&quot;caret-color: rgb(0, 0, 0); color: rgb(0, 0, 0); font-family: -webkit-standard; font-size: medium; font-style: normal; font-variant-caps: normal; font-weight: 400; letter-spacing: normal; text-align: start; text-indent: 0px; text-transform: none; white-space: normal; word-spacing: 0px; -webkit-text-stroke-width: 0px; text-decoration: none; float: none; display: inline !important;&quot;&gt;- wishlist: Product[]&lt;/span&gt;&lt;div&gt;&lt;span style=&quot;color: light-dark(rgb(0, 0, 0), rgb(237, 237, 237)); font-family: -webkit-standard; font-size: medium; caret-color: light-dark(rgb(0, 0, 0), rgb(237, 237, 237)); background-color: transparent;&quot;&gt;- loyaltyPoints: Number&lt;/span&gt;&lt;/div&gt;&lt;/div&gt;" style="text;strokeColor=none;fillColor=none;align=left;verticalAlign=top;spacingLeft=4;spacingRight=4;overflow=hidden;rotatable=0;points=[[0,0.5],[1,0.5]];portConstraint=eastwest;whiteSpace=wrap;html=1;labelBackgroundColor=none;" vertex="1" parent="MzqDUtTs7JRf5Kxp3Mxb-12">
          <mxGeometry y="26" width="210" height="84" as="geometry" />
        </mxCell>
        <mxCell id="MzqDUtTs7JRf5Kxp3Mxb-14" value="" style="line;strokeWidth=1;fillColor=none;align=left;verticalAlign=middle;spacingTop=-1;spacingLeft=3;spacingRight=3;rotatable=0;labelPosition=right;points=[];portConstraint=eastwest;labelBackgroundColor=none;" vertex="1" parent="MzqDUtTs7JRf5Kxp3Mxb-12">
          <mxGeometry y="110" width="210" height="8" as="geometry" />
        </mxCell>
        <mxCell id="MzqDUtTs7JRf5Kxp3Mxb-15" value="&lt;span style=&quot;caret-color: rgb(0, 0, 0); color: rgb(0, 0, 0); font-family: -webkit-standard; font-size: medium;&quot;&gt;+browseProducts():Product[]&amp;nbsp;&lt;/span&gt;&lt;div&gt;&lt;span style=&quot;caret-color: rgb(0, 0, 0); color: rgb(0, 0, 0); font-family: -webkit-standard; font-size: medium;&quot;&gt;+ addToCart():&lt;/span&gt;&lt;span style=&quot;color: light-dark(rgb(0, 0, 0), rgb(237, 237, 237)); font-family: -webkit-standard; font-size: medium; caret-color: light-dark(rgb(0, 0, 0), rgb(237, 237, 237)); background-color: transparent;&quot;&gt;void&amp;nbsp;&lt;/span&gt;&lt;/div&gt;&lt;div&gt;&lt;span style=&quot;caret-color: rgb(0, 0, 0); color: rgb(0, 0, 0); font-family: -webkit-standard; font-size: medium;&quot;&gt;+ placeOrder():&lt;/span&gt;&lt;span style=&quot;color: light-dark(rgb(0, 0, 0), rgb(237, 237, 237)); font-family: -webkit-standard; font-size: medium; caret-color: light-dark(rgb(0, 0, 0), rgb(237, 237, 237)); background-color: transparent;&quot;&gt;Order&lt;/span&gt;&lt;/div&gt;&lt;div&gt;&lt;span style=&quot;background-color: transparent; color: light-dark(rgb(0, 0, 0), rgb(237, 237, 237)); font-family: -webkit-standard; font-size: medium; caret-color: light-dark(rgb(0, 0, 0), rgb(237, 237, 237));&quot;&gt;+ trackOrder(): String&lt;/span&gt;&lt;/div&gt;" style="text;strokeColor=none;fillColor=none;align=left;verticalAlign=top;spacingLeft=4;spacingRight=4;overflow=hidden;rotatable=0;points=[[0,0.5],[1,0.5]];portConstraint=eastwest;whiteSpace=wrap;html=1;labelBackgroundColor=none;" vertex="1" parent="MzqDUtTs7JRf5Kxp3Mxb-12">
          <mxGeometry y="118" width="210" height="92" as="geometry" />
        </mxCell>
        <mxCell id="MzqDUtTs7JRf5Kxp3Mxb-87" value="" style="endArrow=none;html=1;rounded=0;exitX=0.25;exitY=0;exitDx=0;exitDy=0;labelBackgroundColor=none;fontColor=default;" edge="1" parent="MzqDUtTs7JRf5Kxp3Mxb-12" source="MzqDUtTs7JRf5Kxp3Mxb-44">
          <mxGeometry width="50" height="50" relative="1" as="geometry">
            <mxPoint x="25" y="250" as="sourcePoint" />
            <mxPoint x="95" y="210" as="targetPoint" />
          </mxGeometry>
        </mxCell>
        <mxCell id="MzqDUtTs7JRf5Kxp3Mxb-60" value="&lt;span style=&quot;caret-color: rgb(0, 0, 0); color: rgb(0, 0, 0); font-family: -webkit-standard; font-size: medium; font-style: normal; font-variant-caps: normal; font-weight: 400; letter-spacing: normal; orphans: auto; text-align: start; text-indent: 0px; text-transform: none; white-space: normal; widows: auto; word-spacing: 0px; -webkit-text-stroke-width: 0px; text-decoration: none; display: inline !important; float: none;&quot;&gt;CartItem&lt;/span&gt;" style="swimlane;fontStyle=1;align=center;verticalAlign=top;childLayout=stackLayout;horizontal=1;startSize=26;horizontalStack=0;resizeParent=1;resizeParentMax=0;resizeLast=0;collapsible=1;marginBottom=0;whiteSpace=wrap;html=1;labelBackgroundColor=none;" vertex="1" parent="1">
          <mxGeometry x="120" y="840" width="190" height="170" as="geometry" />
        </mxCell>
        <mxCell id="MzqDUtTs7JRf5Kxp3Mxb-61" value="&lt;span style=&quot;caret-color: rgb(0, 0, 0); color: rgb(0, 0, 0); font-family: -webkit-standard; font-size: medium; font-style: normal; font-variant-caps: normal; font-weight: 400; letter-spacing: normal; text-align: start; text-indent: 0px; text-transform: none; white-space: normal; word-spacing: 0px; -webkit-text-stroke-width: 0px; text-decoration: none; float: none; display: inline !important;&quot;&gt;- productId: String&amp;nbsp;&lt;/span&gt;&lt;div&gt;&lt;span style=&quot;caret-color: rgb(0, 0, 0); color: rgb(0, 0, 0); font-family: -webkit-standard; font-size: medium; font-style: normal; font-variant-caps: normal; font-weight: 400; letter-spacing: normal; text-align: start; text-indent: 0px; text-transform: none; white-space: normal; word-spacing: 0px; -webkit-text-stroke-width: 0px; text-decoration: none; float: none; display: inline !important;&quot;&gt;- quantity: Number&amp;nbsp;&lt;/span&gt;&lt;/div&gt;&lt;div&gt;&lt;span style=&quot;caret-color: rgb(0, 0, 0); color: rgb(0, 0, 0); font-family: -webkit-standard; font-size: medium; font-style: normal; font-variant-caps: normal; font-weight: 400; letter-spacing: normal; text-align: start; text-indent: 0px; text-transform: none; white-space: normal; word-spacing: 0px; -webkit-text-stroke-width: 0px; text-decoration: none; float: none; display: inline !important;&quot;&gt;- unitPrice: Number&lt;/span&gt;&lt;/div&gt;" style="text;strokeColor=none;fillColor=none;align=left;verticalAlign=top;spacingLeft=4;spacingRight=4;overflow=hidden;rotatable=0;points=[[0,0.5],[1,0.5]];portConstraint=eastwest;whiteSpace=wrap;html=1;labelBackgroundColor=none;" vertex="1" parent="MzqDUtTs7JRf5Kxp3Mxb-60">
          <mxGeometry y="26" width="190" height="104" as="geometry" />
        </mxCell>
        <mxCell id="MzqDUtTs7JRf5Kxp3Mxb-62" value="" style="line;strokeWidth=1;fillColor=none;align=left;verticalAlign=middle;spacingTop=-1;spacingLeft=3;spacingRight=3;rotatable=0;labelPosition=right;points=[];portConstraint=eastwest;labelBackgroundColor=none;" vertex="1" parent="MzqDUtTs7JRf5Kxp3Mxb-60">
          <mxGeometry y="130" width="190" height="8" as="geometry" />
        </mxCell>
        <mxCell id="MzqDUtTs7JRf5Kxp3Mxb-63" value="&lt;span style=&quot;caret-color: rgb(0, 0, 0); color: rgb(0, 0, 0); font-family: -webkit-standard; font-size: medium; font-style: normal; font-variant-caps: normal; font-weight: 400; letter-spacing: normal; orphans: auto; text-align: start; text-indent: 0px; text-transform: none; white-space: normal; widows: auto; word-spacing: 0px; -webkit-text-stroke-width: 0px; text-decoration: none; display: inline !important; float: none;&quot;&gt;+ calculateTotal(): Number&lt;/span&gt;" style="text;strokeColor=none;fillColor=none;align=left;verticalAlign=top;spacingLeft=4;spacingRight=4;overflow=hidden;rotatable=0;points=[[0,0.5],[1,0.5]];portConstraint=eastwest;whiteSpace=wrap;html=1;labelBackgroundColor=none;" vertex="1" parent="MzqDUtTs7JRf5Kxp3Mxb-60">
          <mxGeometry y="138" width="190" height="32" as="geometry" />
        </mxCell>
        <mxCell id="MzqDUtTs7JRf5Kxp3Mxb-70" value="Extends" style="endArrow=block;endSize=16;endFill=0;html=1;rounded=0;entryX=0.75;entryY=0;entryDx=0;entryDy=0;labelBackgroundColor=none;fontColor=default;" edge="1" parent="1">
          <mxGeometry width="160" relative="1" as="geometry">
            <mxPoint x="550" y="-30" as="sourcePoint" />
            <mxPoint x="-429.5" y="40" as="targetPoint" />
            <Array as="points">
              <mxPoint x="-430" y="-30" />
            </Array>
          </mxGeometry>
        </mxCell>
        <mxCell id="MzqDUtTs7JRf5Kxp3Mxb-82" value="" style="endArrow=none;html=1;rounded=0;exitX=0.474;exitY=0.005;exitDx=0;exitDy=0;exitPerimeter=0;labelBackgroundColor=none;fontColor=default;" edge="1" parent="1" source="MzqDUtTs7JRf5Kxp3Mxb-16">
          <mxGeometry width="50" height="50" relative="1" as="geometry">
            <mxPoint x="150" y="20" as="sourcePoint" />
            <mxPoint x="200" y="-30" as="targetPoint" />
          </mxGeometry>
        </mxCell>
        <mxCell id="MzqDUtTs7JRf5Kxp3Mxb-84" value="" style="endArrow=none;html=1;rounded=0;exitX=0.551;exitY=0.008;exitDx=0;exitDy=0;exitPerimeter=0;labelBackgroundColor=none;fontColor=default;" edge="1" parent="1" source="MzqDUtTs7JRf5Kxp3Mxb-12">
          <mxGeometry width="50" height="50" relative="1" as="geometry">
            <mxPoint x="-70.28" y="40" as="sourcePoint" />
            <mxPoint x="-70.28" y="-31" as="targetPoint" />
          </mxGeometry>
        </mxCell>
        <mxCell id="MzqDUtTs7JRf5Kxp3Mxb-86" value="" style="endArrow=none;html=1;rounded=0;exitX=0.579;exitY=-0.002;exitDx=0;exitDy=0;exitPerimeter=0;labelBackgroundColor=none;fontColor=default;" edge="1" parent="1" source="MzqDUtTs7JRf5Kxp3Mxb-36">
          <mxGeometry width="50" height="50" relative="1" as="geometry">
            <mxPoint x="530" y="40" as="sourcePoint" />
            <mxPoint x="550" y="-30" as="targetPoint" />
          </mxGeometry>
        </mxCell>
        <mxCell id="MzqDUtTs7JRf5Kxp3Mxb-89" value="1" style="text;align=center;fontStyle=1;verticalAlign=middle;spacingLeft=3;spacingRight=3;strokeColor=none;rotatable=0;points=[[0,0.5],[1,0.5]];portConstraint=eastwest;html=1;labelBackgroundColor=none;" vertex="1" parent="1">
          <mxGeometry x="-140" y="250" width="80" height="26" as="geometry" />
        </mxCell>
        <mxCell id="MzqDUtTs7JRf5Kxp3Mxb-91" value="" style="endArrow=none;html=1;rounded=0;entryX=0;entryY=0.5;entryDx=0;entryDy=0;exitX=0.995;exitY=0.06;exitDx=0;exitDy=0;exitPerimeter=0;labelBackgroundColor=none;fontColor=default;" edge="1" parent="1" source="MzqDUtTs7JRf5Kxp3Mxb-20">
          <mxGeometry width="50" height="50" relative="1" as="geometry">
            <mxPoint x="-350" y="406" as="sourcePoint" />
            <mxPoint x="110" y="260.0000000000002" as="targetPoint" />
          </mxGeometry>
        </mxCell>
        <mxCell id="MzqDUtTs7JRf5Kxp3Mxb-92" value="1" style="text;align=center;fontStyle=1;verticalAlign=middle;spacingLeft=3;spacingRight=3;strokeColor=none;rotatable=0;points=[[0,0.5],[1,0.5]];portConstraint=eastwest;html=1;labelBackgroundColor=none;" vertex="1" parent="1">
          <mxGeometry x="50" y="240" width="80" height="26" as="geometry" />
        </mxCell>
        <mxCell id="MzqDUtTs7JRf5Kxp3Mxb-96" value="" style="endArrow=none;html=1;rounded=0;exitX=1.006;exitY=0.11;exitDx=0;exitDy=0;exitPerimeter=0;entryX=0.006;entryY=0.116;entryDx=0;entryDy=0;entryPerimeter=0;labelBackgroundColor=none;fontColor=default;" edge="1" parent="1" source="MzqDUtTs7JRf5Kxp3Mxb-21" target="MzqDUtTs7JRf5Kxp3Mxb-25">
          <mxGeometry width="50" height="50" relative="1" as="geometry">
            <mxPoint x="70" y="470" as="sourcePoint" />
            <mxPoint x="-190" y="440" as="targetPoint" />
          </mxGeometry>
        </mxCell>
        <mxCell id="MzqDUtTs7JRf5Kxp3Mxb-97" value="*" style="text;align=center;fontStyle=1;verticalAlign=middle;spacingLeft=3;spacingRight=3;strokeColor=none;rotatable=0;points=[[0,0.5],[1,0.5]];portConstraint=eastwest;html=1;fontSize=20;labelBackgroundColor=none;" vertex="1" parent="1">
          <mxGeometry x="-390" y="430" width="80" height="26" as="geometry" />
        </mxCell>
        <mxCell id="MzqDUtTs7JRf5Kxp3Mxb-98" value="1" style="text;align=center;fontStyle=1;verticalAlign=middle;spacingLeft=3;spacingRight=3;strokeColor=none;rotatable=0;points=[[0,0.5],[1,0.5]];portConstraint=eastwest;html=1;fontSize=26;labelBackgroundColor=none;" vertex="1" parent="1">
          <mxGeometry x="-230" y="410" width="80" height="26" as="geometry" />
        </mxCell>
        <mxCell id="MzqDUtTs7JRf5Kxp3Mxb-99" value="*" style="text;align=center;fontStyle=1;verticalAlign=middle;spacingLeft=3;spacingRight=3;strokeColor=none;rotatable=0;points=[[0,0.5],[1,0.5]];portConstraint=eastwest;html=1;fontSize=20;labelBackgroundColor=none;" vertex="1" parent="1">
          <mxGeometry x="150" y="370" width="80" height="26" as="geometry" />
        </mxCell>
        <mxCell id="MzqDUtTs7JRf5Kxp3Mxb-100" value="*" style="text;align=center;fontStyle=1;verticalAlign=middle;spacingLeft=3;spacingRight=3;strokeColor=none;rotatable=0;points=[[0,0.5],[1,0.5]];portConstraint=eastwest;html=1;fontSize=20;labelBackgroundColor=none;" vertex="1" parent="1">
          <mxGeometry x="-390" y="380" width="80" height="26" as="geometry" />
        </mxCell>
        <mxCell id="MzqDUtTs7JRf5Kxp3Mxb-101" value="" style="endArrow=none;html=1;rounded=0;exitX=0.75;exitY=0;exitDx=0;exitDy=0;entryX=0;entryY=0.5;entryDx=0;entryDy=0;labelBackgroundColor=none;fontColor=default;" edge="1" parent="1" source="MzqDUtTs7JRf5Kxp3Mxb-52" target="MzqDUtTs7JRf5Kxp3Mxb-47">
          <mxGeometry width="50" height="50" relative="1" as="geometry">
            <mxPoint x="160" y="670" as="sourcePoint" />
            <mxPoint x="210" y="620" as="targetPoint" />
          </mxGeometry>
        </mxCell>
        <mxCell id="MzqDUtTs7JRf5Kxp3Mxb-102" value="1" style="text;align=center;fontStyle=1;verticalAlign=middle;spacingLeft=3;spacingRight=3;strokeColor=none;rotatable=0;points=[[0,0.5],[1,0.5]];portConstraint=eastwest;html=1;fontSize=26;labelBackgroundColor=none;" vertex="1" parent="1">
          <mxGeometry x="-440" y="774" width="80" height="26" as="geometry" />
        </mxCell>
        <mxCell id="MzqDUtTs7JRf5Kxp3Mxb-103" value="1" style="text;align=center;fontStyle=1;verticalAlign=middle;spacingLeft=3;spacingRight=3;strokeColor=none;rotatable=0;points=[[0,0.5],[1,0.5]];portConstraint=eastwest;html=1;fontSize=26;labelBackgroundColor=none;" vertex="1" parent="1">
          <mxGeometry x="30" y="630" width="80" height="26" as="geometry" />
        </mxCell>
        <mxCell id="MzqDUtTs7JRf5Kxp3Mxb-104" value="" style="endArrow=none;html=1;rounded=0;entryX=0.5;entryY=0;entryDx=0;entryDy=0;labelBackgroundColor=none;fontColor=default;" edge="1" parent="1" source="MzqDUtTs7JRf5Kxp3Mxb-106" target="MzqDUtTs7JRf5Kxp3Mxb-32">
          <mxGeometry width="50" height="50" relative="1" as="geometry">
            <mxPoint x="30" y="229" as="sourcePoint" />
            <mxPoint x="15" y="798.79" as="targetPoint" />
            <Array as="points">
              <mxPoint x="100" y="718.79" />
            </Array>
          </mxGeometry>
        </mxCell>
        <mxCell id="MzqDUtTs7JRf5Kxp3Mxb-105" value="1" style="text;align=center;fontStyle=1;verticalAlign=middle;spacingLeft=3;spacingRight=3;strokeColor=none;rotatable=0;points=[[0,0.5],[1,0.5]];portConstraint=eastwest;html=1;fontSize=26;labelBackgroundColor=none;" vertex="1" parent="1">
          <mxGeometry x="-90" y="770" width="80" height="26" as="geometry" />
        </mxCell>
        <mxCell id="MzqDUtTs7JRf5Kxp3Mxb-107" value="" style="endArrow=none;html=1;rounded=0;entryX=0.5;entryY=0;entryDx=0;entryDy=0;labelBackgroundColor=none;fontColor=default;" edge="1" parent="1" target="MzqDUtTs7JRf5Kxp3Mxb-106">
          <mxGeometry width="50" height="50" relative="1" as="geometry">
            <mxPoint x="30" y="229" as="sourcePoint" />
            <mxPoint x="-90" y="800" as="targetPoint" />
            <Array as="points" />
          </mxGeometry>
        </mxCell>
        <mxCell id="MzqDUtTs7JRf5Kxp3Mxb-106" value="1" style="text;align=center;fontStyle=1;verticalAlign=middle;spacingLeft=3;spacingRight=3;strokeColor=none;rotatable=0;points=[[0,0.5],[1,0.5]];portConstraint=eastwest;html=1;fontSize=26;labelBackgroundColor=none;" vertex="1" parent="1">
          <mxGeometry y="224" width="80" height="26" as="geometry" />
        </mxCell>
        <mxCell id="MzqDUtTs7JRf5Kxp3Mxb-108" value="" style="endArrow=diamondThin;endFill=1;endSize=24;html=1;rounded=0;exitX=0;exitY=0.5;exitDx=0;exitDy=0;entryX=0.999;entryY=0.412;entryDx=0;entryDy=0;entryPerimeter=0;labelBackgroundColor=none;fontColor=default;" edge="1" parent="1" source="MzqDUtTs7JRf5Kxp3Mxb-41" target="MzqDUtTs7JRf5Kxp3Mxb-45">
          <mxGeometry width="160" relative="1" as="geometry">
            <mxPoint x="-80" y="780" as="sourcePoint" />
            <mxPoint x="350" y="479" as="targetPoint" />
          </mxGeometry>
        </mxCell>
        <mxCell id="MzqDUtTs7JRf5Kxp3Mxb-109" value="" style="endArrow=diamondThin;endFill=1;endSize=24;html=1;rounded=0;entryX=0.999;entryY=0.412;entryDx=0;entryDy=0;entryPerimeter=0;exitX=0;exitY=0.5;exitDx=0;exitDy=0;labelBackgroundColor=none;fontColor=default;" edge="1" parent="1" source="MzqDUtTs7JRf5Kxp3Mxb-61">
          <mxGeometry width="160" relative="1" as="geometry">
            <mxPoint x="180" y="910" as="sourcePoint" />
            <mxPoint x="30" y="910" as="targetPoint" />
            <Array as="points">
              <mxPoint x="10" y="910" />
            </Array>
          </mxGeometry>
        </mxCell>
        <mxCell id="MzqDUtTs7JRf5Kxp3Mxb-111" value="" style="endArrow=diamondThin;endFill=0;endSize=24;html=1;rounded=0;exitX=0;exitY=0.5;exitDx=0;exitDy=0;entryX=0.988;entryY=0.278;entryDx=0;entryDy=0;entryPerimeter=0;labelBackgroundColor=none;fontColor=default;" edge="1" parent="1" source="MzqDUtTs7JRf5Kxp3Mxb-25" target="MzqDUtTs7JRf5Kxp3Mxb-21">
          <mxGeometry width="160" relative="1" as="geometry">
            <mxPoint x="-360" y="560" as="sourcePoint" />
            <mxPoint x="-200" y="560" as="targetPoint" />
          </mxGeometry>
        </mxCell>
        <mxCell id="DdwkhaqYkL6zV_W3IuIs-1" value="&lt;span style=&quot;caret-color: rgb(0, 0, 0); color: rgb(0, 0, 0); font-family: -webkit-standard; font-size: medium; font-style: normal; font-variant-caps: normal; font-weight: 400; letter-spacing: normal; orphans: auto; text-align: start; text-indent: 0px; text-transform: none; white-space: normal; widows: auto; word-spacing: 0px; -webkit-text-stroke-width: 0px; text-decoration: none; display: inline !important; float: none;&quot;&gt;User&lt;/span&gt;" style="swimlane;fontStyle=1;align=center;verticalAlign=top;childLayout=stackLayout;horizontal=1;startSize=26;horizontalStack=0;resizeParent=1;resizeParentMax=0;resizeLast=0;collapsible=1;marginBottom=0;whiteSpace=wrap;html=1;labelBackgroundColor=none;" vertex="1" parent="1">
          <mxGeometry x="40" y="1201" width="230" height="300" as="geometry" />
        </mxCell>
        <mxCell id="DdwkhaqYkL6zV_W3IuIs-2" value="&lt;span style=&quot;caret-color: rgb(0, 0, 0); color: rgb(0, 0, 0); font-family: -webkit-standard; font-size: medium; font-style: normal; font-variant-caps: normal; font-weight: 400; letter-spacing: normal; text-align: start; text-indent: 0px; text-transform: none; white-space: normal; word-spacing: 0px; -webkit-text-stroke-width: 0px; text-decoration: none; float: none; display: inline !important;&quot;&gt;- id: String&amp;nbsp;&lt;/span&gt;&lt;div&gt;&lt;span style=&quot;caret-color: rgb(0, 0, 0); color: rgb(0, 0, 0); font-family: -webkit-standard; font-size: medium; font-style: normal; font-variant-caps: normal; font-weight: 400; letter-spacing: normal; text-align: start; text-indent: 0px; text-transform: none; white-space: normal; word-spacing: 0px; -webkit-text-stroke-width: 0px; text-decoration: none; float: none; display: inline !important;&quot;&gt;- email: String&amp;nbsp;&lt;/span&gt;&lt;/div&gt;&lt;div&gt;&lt;span style=&quot;caret-color: rgb(0, 0, 0); color: rgb(0, 0, 0); font-family: -webkit-standard; font-size: medium; font-style: normal; font-variant-caps: normal; font-weight: 400; letter-spacing: normal; text-align: start; text-indent: 0px; text-transform: none; white-space: normal; word-spacing: 0px; -webkit-text-stroke-width: 0px; text-decoration: none; float: none; display: inline !important;&quot;&gt;- password: String&amp;nbsp;&lt;/span&gt;&lt;/div&gt;&lt;div&gt;&lt;span style=&quot;caret-color: rgb(0, 0, 0); color: rgb(0, 0, 0); font-family: -webkit-standard; font-size: medium; font-style: normal; font-variant-caps: normal; font-weight: 400; letter-spacing: normal; text-align: start; text-indent: 0px; text-transform: none; white-space: normal; word-spacing: 0px; -webkit-text-stroke-width: 0px; text-decoration: none; float: none; display: inline !important;&quot;&gt;- firstName: String&lt;/span&gt;&lt;/div&gt;&lt;div&gt;&lt;span style=&quot;caret-color: rgb(0, 0, 0); color: rgb(0, 0, 0); font-family: -webkit-standard; font-size: medium; font-style: normal; font-variant-caps: normal; font-weight: 400; letter-spacing: normal; text-align: start; text-indent: 0px; text-transform: none; white-space: normal; word-spacing: 0px; -webkit-text-stroke-width: 0px; text-decoration: none; float: none; display: inline !important;&quot;&gt;&amp;nbsp;- lastName: String&amp;nbsp;&lt;/span&gt;&lt;/div&gt;&lt;div&gt;&lt;span style=&quot;caret-color: rgb(0, 0, 0); color: rgb(0, 0, 0); font-family: -webkit-standard; font-size: medium; font-style: normal; font-variant-caps: normal; font-weight: 400; letter-spacing: normal; text-align: start; text-indent: 0px; text-transform: none; white-space: normal; word-spacing: 0px; -webkit-text-stroke-width: 0px; text-decoration: none; float: none; display: inline !important;&quot;&gt;- phone String&amp;nbsp;&lt;/span&gt;&lt;/div&gt;&lt;div&gt;&lt;span style=&quot;caret-color: rgb(0, 0, 0); color: rgb(0, 0, 0); font-family: -webkit-standard; font-size: medium; font-style: normal; font-variant-caps: normal; font-weight: 400; letter-spacing: normal; text-align: start; text-indent: 0px; text-transform: none; white-space: normal; word-spacing: 0px; -webkit-text-stroke-width: 0px; text-decoration: none; float: none; display: inline !important;&quot;&gt;- createdAt: Date&lt;/span&gt;&lt;/div&gt;&lt;div&gt;&lt;span style=&quot;caret-color: rgb(0, 0, 0); color: rgb(0, 0, 0); font-family: -webkit-standard; font-size: medium; font-style: normal; font-variant-caps: normal; font-weight: 400; letter-spacing: normal; text-align: start; text-indent: 0px; text-transform: none; white-space: normal; word-spacing: 0px; -webkit-text-stroke-width: 0px; text-decoration: none; float: none; display: inline !important;&quot;&gt;&amp;nbsp;- isActive: Boolean&lt;/span&gt;&lt;/div&gt;" style="text;strokeColor=none;fillColor=none;align=left;verticalAlign=top;spacingLeft=4;spacingRight=4;overflow=hidden;rotatable=0;points=[[0,0.5],[1,0.5]];portConstraint=eastwest;whiteSpace=wrap;html=1;labelBackgroundColor=none;" vertex="1" parent="DdwkhaqYkL6zV_W3IuIs-1">
          <mxGeometry y="26" width="230" height="164" as="geometry" />
        </mxCell>
        <mxCell id="DdwkhaqYkL6zV_W3IuIs-3" value="" style="line;strokeWidth=1;fillColor=none;align=left;verticalAlign=middle;spacingTop=-1;spacingLeft=3;spacingRight=3;rotatable=0;labelPosition=right;points=[];portConstraint=eastwest;labelBackgroundColor=none;" vertex="1" parent="DdwkhaqYkL6zV_W3IuIs-1">
          <mxGeometry y="190" width="230" height="18" as="geometry" />
        </mxCell>
        <mxCell id="DdwkhaqYkL6zV_W3IuIs-4" value="&lt;span style=&quot;caret-color: rgb(0, 0, 0); color: rgb(0, 0, 0); font-style: normal; font-variant-caps: normal; font-weight: 400; letter-spacing: normal; text-align: start; text-indent: 0px; text-transform: none; white-space: normal; word-spacing: 0px; -webkit-text-stroke-width: 0px; text-decoration: none;&quot;&gt;+ login(): Boolean&amp;nbsp;&lt;/span&gt;&lt;div&gt;&lt;span style=&quot;caret-color: rgb(0, 0, 0); color: rgb(0, 0, 0); font-style: normal; font-variant-caps: normal; font-weight: 400; letter-spacing: normal; text-align: start; text-indent: 0px; text-transform: none; white-space: normal; word-spacing: 0px; -webkit-text-stroke-width: 0px; text-decoration: none;&quot;&gt;&amp;nbsp;+ logout(): void&amp;nbsp;&lt;/span&gt;&lt;/div&gt;&lt;div&gt;&lt;span style=&quot;caret-color: rgb(0, 0, 0); color: rgb(0, 0, 0); font-style: normal; font-variant-caps: normal; font-weight: 400; letter-spacing: normal; text-align: start; text-indent: 0px; text-transform: none; white-space: normal; word-spacing: 0px; -webkit-text-stroke-width: 0px; text-decoration: none;&quot;&gt;+ updateProfile(): void&amp;nbsp;&lt;/span&gt;&lt;/div&gt;&lt;div&gt;&lt;span style=&quot;caret-color: rgb(0, 0, 0); color: rgb(0, 0, 0); font-style: normal; font-variant-caps: normal; font-weight: 400; letter-spacing: normal; text-align: start; text-indent: 0px; text-transform: none; white-space: normal; word-spacing: 0px; -webkit-text-stroke-width: 0px; text-decoration: none;&quot;&gt;&amp;nbsp;+ validateEmail(): Boolean&lt;span class=&quot;Apple-converted-space&quot;&gt;&amp;nbsp;&lt;/span&gt;&lt;/span&gt;&lt;/div&gt;" style="text;strokeColor=none;fillColor=none;align=left;verticalAlign=top;spacingLeft=4;spacingRight=4;overflow=hidden;rotatable=0;points=[[0,0.5],[1,0.5]];portConstraint=eastwest;whiteSpace=wrap;html=1;labelBackgroundColor=none;" vertex="1" parent="DdwkhaqYkL6zV_W3IuIs-1">
          <mxGeometry y="208" width="230" height="92" as="geometry" />
        </mxCell>
        <mxCell id="DdwkhaqYkL6zV_W3IuIs-5" value="&lt;span style=&quot;caret-color: rgb(0, 0, 0); color: rgb(0, 0, 0); font-family: -webkit-standard; font-size: medium; font-style: normal; font-variant-caps: normal; font-weight: 400; letter-spacing: normal; orphans: auto; text-align: start; text-indent: 0px; text-transform: none; white-space: normal; widows: auto; word-spacing: 0px; -webkit-text-stroke-width: 0px; text-decoration: none; display: inline !important; float: none;&quot;&gt;Business&lt;/span&gt;" style="swimlane;fontStyle=1;align=center;verticalAlign=top;childLayout=stackLayout;horizontal=1;startSize=26;horizontalStack=0;resizeParent=1;resizeParentMax=0;resizeLast=0;collapsible=1;marginBottom=0;whiteSpace=wrap;html=1;labelBackgroundColor=none;" vertex="1" parent="1">
          <mxGeometry x="750" y="1201" width="210" height="250" as="geometry" />
        </mxCell>
        <mxCell id="DdwkhaqYkL6zV_W3IuIs-6" value="&lt;span style=&quot;caret-color: rgb(0, 0, 0); color: rgb(0, 0, 0); font-family: -webkit-standard; font-size: medium;&quot;&gt;- businessName: String&amp;nbsp;&lt;/span&gt;&lt;div&gt;&lt;span style=&quot;caret-color: rgb(0, 0, 0); color: rgb(0, 0, 0); font-family: -webkit-standard; font-size: medium;&quot;&gt;- taxNumber: String&lt;/span&gt;&lt;/div&gt;&lt;div&gt;&lt;span style=&quot;caret-color: rgb(0, 0, 0); color: rgb(0, 0, 0); font-family: -webkit-standard; font-size: medium;&quot;&gt;&amp;nbsp;- businessAddress: String - isVerified: Boolean&lt;/span&gt;&lt;/div&gt;" style="text;strokeColor=none;fillColor=none;align=left;verticalAlign=top;spacingLeft=4;spacingRight=4;overflow=hidden;rotatable=0;points=[[0,0.5],[1,0.5]];portConstraint=eastwest;whiteSpace=wrap;html=1;labelBackgroundColor=none;" vertex="1" parent="DdwkhaqYkL6zV_W3IuIs-5">
          <mxGeometry y="26" width="210" height="124" as="geometry" />
        </mxCell>
        <mxCell id="DdwkhaqYkL6zV_W3IuIs-7" value="" style="line;strokeWidth=1;fillColor=none;align=left;verticalAlign=middle;spacingTop=-1;spacingLeft=3;spacingRight=3;rotatable=0;labelPosition=right;points=[];portConstraint=eastwest;labelBackgroundColor=none;" vertex="1" parent="DdwkhaqYkL6zV_W3IuIs-5">
          <mxGeometry y="150" width="210" height="8" as="geometry" />
        </mxCell>
        <mxCell id="DdwkhaqYkL6zV_W3IuIs-8" value="&lt;div&gt;&lt;span style=&quot;caret-color: rgb(0, 0, 0); color: rgb(0, 0, 0); font-family: -webkit-standard; font-size: medium;&quot;&gt;+ addProduct(): void&amp;nbsp;&lt;/span&gt;&lt;/div&gt;&lt;div&gt;&lt;span style=&quot;caret-color: rgb(0, 0, 0); color: rgb(0, 0, 0); font-family: -webkit-standard; font-size: medium;&quot;&gt;+ updateProduct(): void&lt;/span&gt;&lt;/div&gt;&lt;div&gt;&lt;span style=&quot;caret-color: rgb(0, 0, 0); color: rgb(0, 0, 0); font-family: -webkit-standard; font-size: medium;&quot;&gt;&amp;nbsp;+ manageInventory(): void&amp;nbsp;&lt;/span&gt;&lt;/div&gt;&lt;div&gt;&lt;span style=&quot;caret-color: rgb(0, 0, 0); color: rgb(0, 0, 0); font-family: -webkit-standard; font-size: medium;&quot;&gt;+ generateReports(): Report&lt;/span&gt;&lt;/div&gt;" style="text;strokeColor=none;fillColor=none;align=left;verticalAlign=top;spacingLeft=4;spacingRight=4;overflow=hidden;rotatable=0;points=[[0,0.5],[1,0.5]];portConstraint=eastwest;whiteSpace=wrap;html=1;labelBackgroundColor=none;" vertex="1" parent="DdwkhaqYkL6zV_W3IuIs-5">
          <mxGeometry y="158" width="210" height="92" as="geometry" />
        </mxCell>
        <mxCell id="DdwkhaqYkL6zV_W3IuIs-9" value="&lt;span style=&quot;caret-color: rgb(0, 0, 0); color: rgb(0, 0, 0); font-family: -webkit-standard; font-size: medium; font-style: normal; font-variant-caps: normal; font-weight: 400; letter-spacing: normal; orphans: auto; text-align: start; text-indent: 0px; text-transform: none; white-space: normal; widows: auto; word-spacing: 0px; -webkit-text-stroke-width: 0px; text-decoration: none; display: inline !important; float: none;&quot;&gt;Product&lt;/span&gt;" style="swimlane;fontStyle=1;align=center;verticalAlign=top;childLayout=stackLayout;horizontal=1;startSize=26;horizontalStack=0;resizeParent=1;resizeParentMax=0;resizeLast=0;collapsible=1;marginBottom=0;whiteSpace=wrap;html=1;labelBackgroundColor=none;" vertex="1" parent="1">
          <mxGeometry x="70" y="1551" width="210" height="340" as="geometry" />
        </mxCell>
        <mxCell id="DdwkhaqYkL6zV_W3IuIs-10" value="&lt;span style=&quot;caret-color: rgb(0, 0, 0); color: rgb(0, 0, 0); font-family: -webkit-standard; font-size: medium; font-style: normal; font-variant-caps: normal; font-weight: 400; letter-spacing: normal; text-align: start; text-indent: 0px; text-transform: none; white-space: normal; word-spacing: 0px; -webkit-text-stroke-width: 0px; text-decoration: none; float: none; display: inline !important;&quot;&gt;- id: String&amp;nbsp;&lt;/span&gt;&lt;div&gt;&lt;span style=&quot;caret-color: rgb(0, 0, 0); color: rgb(0, 0, 0); font-family: -webkit-standard; font-size: medium; font-style: normal; font-variant-caps: normal; font-weight: 400; letter-spacing: normal; text-align: start; text-indent: 0px; text-transform: none; white-space: normal; word-spacing: 0px; -webkit-text-stroke-width: 0px; text-decoration: none; float: none; display: inline !important;&quot;&gt;- name: String&amp;nbsp;&lt;/span&gt;&lt;/div&gt;&lt;div&gt;&lt;span style=&quot;caret-color: rgb(0, 0, 0); color: rgb(0, 0, 0); font-family: -webkit-standard; font-size: medium; font-style: normal; font-variant-caps: normal; font-weight: 400; letter-spacing: normal; text-align: start; text-indent: 0px; text-transform: none; white-space: normal; word-spacing: 0px; -webkit-text-stroke-width: 0px; text-decoration: none; float: none; display: inline !important;&quot;&gt;- description: String&lt;/span&gt;&lt;/div&gt;&lt;div&gt;&lt;span style=&quot;caret-color: rgb(0, 0, 0); color: rgb(0, 0, 0); font-family: -webkit-standard; font-size: medium; font-style: normal; font-variant-caps: normal; font-weight: 400; letter-spacing: normal; text-align: start; text-indent: 0px; text-transform: none; white-space: normal; word-spacing: 0px; -webkit-text-stroke-width: 0px; text-decoration: none; float: none; display: inline !important;&quot;&gt;&amp;nbsp;- price: Number&amp;nbsp;&lt;/span&gt;&lt;/div&gt;&lt;div&gt;&lt;span style=&quot;caret-color: rgb(0, 0, 0); color: rgb(0, 0, 0); font-family: -webkit-standard; font-size: medium; font-style: normal; font-variant-caps: normal; font-weight: 400; letter-spacing: normal; text-align: start; text-indent: 0px; text-transform: none; white-space: normal; word-spacing: 0px; -webkit-text-stroke-width: 0px; text-decoration: none; float: none; display: inline !important;&quot;&gt;- stock: Number&amp;nbsp;&lt;/span&gt;&lt;/div&gt;&lt;div&gt;&lt;span style=&quot;caret-color: rgb(0, 0, 0); color: rgb(0, 0, 0); font-family: -webkit-standard; font-size: medium; font-style: normal; font-variant-caps: normal; font-weight: 400; letter-spacing: normal; text-align: start; text-indent: 0px; text-transform: none; white-space: normal; word-spacing: 0px; -webkit-text-stroke-width: 0px; text-decoration: none; float: none; display: inline !important;&quot;&gt;- images: String[]&lt;/span&gt;&lt;/div&gt;&lt;div&gt;&lt;span style=&quot;caret-color: rgb(0, 0, 0); color: rgb(0, 0, 0); font-family: -webkit-standard; font-size: medium; font-style: normal; font-variant-caps: normal; font-weight: 400; letter-spacing: normal; text-align: start; text-indent: 0px; text-transform: none; white-space: normal; word-spacing: 0px; -webkit-text-stroke-width: 0px; text-decoration: none; float: none; display: inline !important;&quot;&gt;&amp;nbsp;- sellerId: String&amp;nbsp;&lt;/span&gt;&lt;/div&gt;&lt;div&gt;&lt;span style=&quot;caret-color: rgb(0, 0, 0); color: rgb(0, 0, 0); font-family: -webkit-standard; font-size: medium; font-style: normal; font-variant-caps: normal; font-weight: 400; letter-spacing: normal; text-align: start; text-indent: 0px; text-transform: none; white-space: normal; word-spacing: 0px; -webkit-text-stroke-width: 0px; text-decoration: none; float: none; display: inline !important;&quot;&gt;- categoryId: String&lt;/span&gt;&lt;/div&gt;&lt;div&gt;&lt;span style=&quot;caret-color: rgb(0, 0, 0); color: rgb(0, 0, 0); font-family: -webkit-standard; font-size: medium; font-style: normal; font-variant-caps: normal; font-weight: 400; letter-spacing: normal; text-align: start; text-indent: 0px; text-transform: none; white-space: normal; word-spacing: 0px; -webkit-text-stroke-width: 0px; text-decoration: none; float: none; display: inline !important;&quot;&gt;&amp;nbsp;- isApproved: Boolean&amp;nbsp;&lt;/span&gt;&lt;/div&gt;&lt;div&gt;&lt;span style=&quot;caret-color: rgb(0, 0, 0); color: rgb(0, 0, 0); font-family: -webkit-standard; font-size: medium; font-style: normal; font-variant-caps: normal; font-weight: 400; letter-spacing: normal; text-align: start; text-indent: 0px; text-transform: none; white-space: normal; word-spacing: 0px; -webkit-text-stroke-width: 0px; text-decoration: none; float: none; display: inline !important;&quot;&gt;- rating: Number&lt;/span&gt;&lt;/div&gt;" style="text;strokeColor=none;fillColor=none;align=left;verticalAlign=top;spacingLeft=4;spacingRight=4;overflow=hidden;rotatable=0;points=[[0,0.5],[1,0.5]];portConstraint=eastwest;whiteSpace=wrap;html=1;labelBackgroundColor=none;" vertex="1" parent="DdwkhaqYkL6zV_W3IuIs-9">
          <mxGeometry y="26" width="210" height="214" as="geometry" />
        </mxCell>
        <mxCell id="DdwkhaqYkL6zV_W3IuIs-11" value="" style="line;strokeWidth=1;fillColor=none;align=left;verticalAlign=middle;spacingTop=-1;spacingLeft=3;spacingRight=3;rotatable=0;labelPosition=right;points=[];portConstraint=eastwest;labelBackgroundColor=none;" vertex="1" parent="DdwkhaqYkL6zV_W3IuIs-9">
          <mxGeometry y="240" width="210" height="8" as="geometry" />
        </mxCell>
        <mxCell id="DdwkhaqYkL6zV_W3IuIs-12" value="&lt;span style=&quot;caret-color: rgb(0, 0, 0); color: rgb(0, 0, 0); font-family: -webkit-standard; font-size: medium; font-style: normal; font-variant-caps: normal; font-weight: 400; letter-spacing: normal; text-align: start; text-indent: 0px; text-transform: none; white-space: normal; word-spacing: 0px; -webkit-text-stroke-width: 0px; text-decoration: none; float: none; display: inline !important;&quot;&gt;+ updateStock(): void&amp;nbsp;&lt;/span&gt;&lt;div&gt;&lt;span style=&quot;caret-color: rgb(0, 0, 0); color: rgb(0, 0, 0); font-family: -webkit-standard; font-size: medium; font-style: normal; font-variant-caps: normal; font-weight: 400; letter-spacing: normal; text-align: start; text-indent: 0px; text-transform: none; white-space: normal; word-spacing: 0px; -webkit-text-stroke-width: 0px; text-decoration: none; float: none; display: inline !important;&quot;&gt;+ calculateRating():Number&amp;nbsp;&lt;/span&gt;&lt;/div&gt;&lt;div&gt;&lt;span style=&quot;caret-color: rgb(0, 0, 0); color: rgb(0, 0, 0); font-family: -webkit-standard; font-size: medium; font-style: normal; font-variant-caps: normal; font-weight: 400; letter-spacing: normal; text-align: start; text-indent: 0px; text-transform: none; white-space: normal; word-spacing: 0px; -webkit-text-stroke-width: 0px; text-decoration: none; float: none; display: inline !important;&quot;&gt;+ addImages(): void&lt;/span&gt;&lt;/div&gt;&lt;div&gt;&lt;span style=&quot;caret-color: rgb(0, 0, 0); color: rgb(0, 0, 0); font-family: -webkit-standard; font-size: medium; font-style: normal; font-variant-caps: normal; font-weight: 400; letter-spacing: normal; text-align: start; text-indent: 0px; text-transform: none; white-space: normal; word-spacing: 0px; -webkit-text-stroke-width: 0px; text-decoration: none; float: none; display: inline !important;&quot;&gt;&amp;nbsp;+ approve(): void&lt;/span&gt;&lt;/div&gt;" style="text;strokeColor=none;fillColor=none;align=left;verticalAlign=top;spacingLeft=4;spacingRight=4;overflow=hidden;rotatable=0;points=[[0,0.5],[1,0.5]];portConstraint=eastwest;whiteSpace=wrap;html=1;labelBackgroundColor=none;" vertex="1" parent="DdwkhaqYkL6zV_W3IuIs-9">
          <mxGeometry y="248" width="210" height="92" as="geometry" />
        </mxCell>
        <mxCell id="DdwkhaqYkL6zV_W3IuIs-13" value="&lt;span style=&quot;caret-color: rgb(0, 0, 0); color: rgb(0, 0, 0); font-family: -webkit-standard; font-size: medium; font-style: normal; font-variant-caps: normal; font-weight: 400; letter-spacing: normal; orphans: auto; text-align: start; text-indent: 0px; text-transform: none; white-space: normal; widows: auto; word-spacing: 0px; -webkit-text-stroke-width: 0px; text-decoration: none; display: inline !important; float: none;&quot;&gt;Category&lt;/span&gt;" style="swimlane;fontStyle=1;align=center;verticalAlign=top;childLayout=stackLayout;horizontal=1;startSize=26;horizontalStack=0;resizeParent=1;resizeParentMax=0;resizeLast=0;collapsible=1;marginBottom=0;whiteSpace=wrap;html=1;labelBackgroundColor=none;" vertex="1" parent="1">
          <mxGeometry x="455" y="1561" width="230" height="210" as="geometry" />
        </mxCell>
        <mxCell id="DdwkhaqYkL6zV_W3IuIs-14" value="&lt;span style=&quot;caret-color: rgb(0, 0, 0); color: rgb(0, 0, 0); font-family: -webkit-standard; font-size: medium; font-style: normal; font-variant-caps: normal; font-weight: 400; letter-spacing: normal; text-align: start; text-indent: 0px; text-transform: none; white-space: normal; word-spacing: 0px; -webkit-text-stroke-width: 0px; text-decoration: none; float: none; display: inline !important;&quot;&gt;- id: String&amp;nbsp;&lt;/span&gt;&lt;div&gt;&lt;span style=&quot;caret-color: rgb(0, 0, 0); color: rgb(0, 0, 0); font-family: -webkit-standard; font-size: medium; font-style: normal; font-variant-caps: normal; font-weight: 400; letter-spacing: normal; text-align: start; text-indent: 0px; text-transform: none; white-space: normal; word-spacing: 0px; -webkit-text-stroke-width: 0px; text-decoration: none; float: none; display: inline !important;&quot;&gt;- name: String&amp;nbsp;&lt;/span&gt;&lt;/div&gt;&lt;div&gt;&lt;span style=&quot;caret-color: rgb(0, 0, 0); color: rgb(0, 0, 0); font-family: -webkit-standard; font-size: medium; font-style: normal; font-variant-caps: normal; font-weight: 400; letter-spacing: normal; text-align: start; text-indent: 0px; text-transform: none; white-space: normal; word-spacing: 0px; -webkit-text-stroke-width: 0px; text-decoration: none; float: none; display: inline !important;&quot;&gt;- description: String&amp;nbsp;&lt;/span&gt;&lt;/div&gt;&lt;div&gt;&lt;span style=&quot;caret-color: rgb(0, 0, 0); color: rgb(0, 0, 0); font-family: -webkit-standard; font-size: medium; font-style: normal; font-variant-caps: normal; font-weight: 400; letter-spacing: normal; text-align: start; text-indent: 0px; text-transform: none; white-space: normal; word-spacing: 0px; -webkit-text-stroke-width: 0px; text-decoration: none; float: none; display: inline !important;&quot;&gt;- parentId: String&lt;/span&gt;&lt;/div&gt;" style="text;strokeColor=none;fillColor=none;align=left;verticalAlign=top;spacingLeft=4;spacingRight=4;overflow=hidden;rotatable=0;points=[[0,0.5],[1,0.5]];portConstraint=eastwest;whiteSpace=wrap;html=1;labelBackgroundColor=none;" vertex="1" parent="DdwkhaqYkL6zV_W3IuIs-13">
          <mxGeometry y="26" width="230" height="94" as="geometry" />
        </mxCell>
        <mxCell id="DdwkhaqYkL6zV_W3IuIs-15" value="" style="line;strokeWidth=1;fillColor=none;align=left;verticalAlign=middle;spacingTop=-1;spacingLeft=3;spacingRight=3;rotatable=0;labelPosition=right;points=[];portConstraint=eastwest;labelBackgroundColor=none;" vertex="1" parent="DdwkhaqYkL6zV_W3IuIs-13">
          <mxGeometry y="120" width="230" height="8" as="geometry" />
        </mxCell>
        <mxCell id="DdwkhaqYkL6zV_W3IuIs-16" value="&lt;span style=&quot;caret-color: rgb(0, 0, 0); color: rgb(0, 0, 0); font-family: -webkit-standard; font-size: medium; font-style: normal; font-variant-caps: normal; font-weight: 400; letter-spacing: normal; text-align: start; text-indent: 0px; text-transform: none; white-space: normal; word-spacing: 0px; -webkit-text-stroke-width: 0px; text-decoration: none; float: none; display: inline !important;&quot;&gt;+ addProduct(): void&amp;nbsp;&lt;/span&gt;&lt;div&gt;&lt;span style=&quot;caret-color: rgb(0, 0, 0); color: rgb(0, 0, 0); font-family: -webkit-standard; font-size: medium; font-style: normal; font-variant-caps: normal; font-weight: 400; letter-spacing: normal; text-align: start; text-indent: 0px; text-transform: none; white-space: normal; word-spacing: 0px; -webkit-text-stroke-width: 0px; text-decoration: none; float: none; display: inline !important;&quot;&gt;+ removeProduct(): void&amp;nbsp;&lt;/span&gt;&lt;/div&gt;&lt;div&gt;&lt;span style=&quot;caret-color: rgb(0, 0, 0); color: rgb(0, 0, 0); font-family: -webkit-standard; font-size: medium; font-style: normal; font-variant-caps: normal; font-weight: 400; letter-spacing: normal; text-align: start; text-indent: 0px; text-transform: none; white-space: normal; word-spacing: 0px; -webkit-text-stroke-width: 0px; text-decoration: none; float: none; display: inline !important;&quot;&gt;+ getSubCategories(): Category[]&lt;/span&gt;&lt;/div&gt;" style="text;strokeColor=none;fillColor=none;align=left;verticalAlign=top;spacingLeft=4;spacingRight=4;overflow=hidden;rotatable=0;points=[[0,0.5],[1,0.5]];portConstraint=eastwest;whiteSpace=wrap;html=1;labelBackgroundColor=none;" vertex="1" parent="DdwkhaqYkL6zV_W3IuIs-13">
          <mxGeometry y="128" width="230" height="82" as="geometry" />
        </mxCell>
        <mxCell id="DdwkhaqYkL6zV_W3IuIs-17" value="&lt;span style=&quot;caret-color: rgb(0, 0, 0); color: rgb(0, 0, 0); font-family: -webkit-standard; font-size: medium; font-style: normal; font-variant-caps: normal; font-weight: 400; letter-spacing: normal; orphans: auto; text-align: start; text-indent: 0px; text-transform: none; white-space: normal; widows: auto; word-spacing: 0px; -webkit-text-stroke-width: 0px; text-decoration: none; display: inline !important; float: none;&quot;&gt;Cart&lt;/span&gt;" style="swimlane;fontStyle=1;align=center;verticalAlign=top;childLayout=stackLayout;horizontal=1;startSize=26;horizontalStack=0;resizeParent=1;resizeParentMax=0;resizeLast=0;collapsible=1;marginBottom=0;whiteSpace=wrap;html=1;labelBackgroundColor=none;" vertex="1" parent="1">
          <mxGeometry x="455" y="1961" width="190" height="270" as="geometry" />
        </mxCell>
        <mxCell id="DdwkhaqYkL6zV_W3IuIs-18" value="&lt;span style=&quot;caret-color: rgb(0, 0, 0); color: rgb(0, 0, 0); font-family: -webkit-standard; font-size: medium; font-style: normal; font-variant-caps: normal; font-weight: 400; letter-spacing: normal; text-align: start; text-indent: 0px; text-transform: none; white-space: normal; word-spacing: 0px; -webkit-text-stroke-width: 0px; text-decoration: none; float: none; display: inline !important;&quot;&gt;- customerId: String&lt;/span&gt;&lt;div&gt;&lt;span style=&quot;caret-color: rgb(0, 0, 0); color: rgb(0, 0, 0); font-family: -webkit-standard; font-size: medium; font-style: normal; font-variant-caps: normal; font-weight: 400; letter-spacing: normal; text-align: start; text-indent: 0px; text-transform: none; white-space: normal; word-spacing: 0px; -webkit-text-stroke-width: 0px; text-decoration: none; float: none; display: inline !important;&quot;&gt;- items: CartItem[]&lt;/span&gt;&lt;/div&gt;&lt;div&gt;&lt;span style=&quot;caret-color: rgb(0, 0, 0); color: rgb(0, 0, 0); font-family: -webkit-standard; font-size: medium; font-style: normal; font-variant-caps: normal; font-weight: 400; letter-spacing: normal; text-align: start; text-indent: 0px; text-transform: none; white-space: normal; word-spacing: 0px; -webkit-text-stroke-width: 0px; text-decoration: none; float: none; display: inline !important;&quot;&gt;- totalAmount: Number&amp;nbsp;&lt;/span&gt;&lt;/div&gt;&lt;div&gt;&lt;span style=&quot;caret-color: rgb(0, 0, 0); color: rgb(0, 0, 0); font-family: -webkit-standard; font-size: medium; font-style: normal; font-variant-caps: normal; font-weight: 400; letter-spacing: normal; text-align: start; text-indent: 0px; text-transform: none; white-space: normal; word-spacing: 0px; -webkit-text-stroke-width: 0px; text-decoration: none; float: none; display: inline !important;&quot;&gt;- createdAt: Date&lt;/span&gt;&lt;/div&gt;" style="text;strokeColor=none;fillColor=none;align=left;verticalAlign=top;spacingLeft=4;spacingRight=4;overflow=hidden;rotatable=0;points=[[0,0.5],[1,0.5]];portConstraint=eastwest;whiteSpace=wrap;html=1;labelBackgroundColor=none;" vertex="1" parent="DdwkhaqYkL6zV_W3IuIs-17">
          <mxGeometry y="26" width="190" height="94" as="geometry" />
        </mxCell>
        <mxCell id="DdwkhaqYkL6zV_W3IuIs-19" value="" style="line;strokeWidth=1;fillColor=none;align=left;verticalAlign=middle;spacingTop=-1;spacingLeft=3;spacingRight=3;rotatable=0;labelPosition=right;points=[];portConstraint=eastwest;labelBackgroundColor=none;" vertex="1" parent="DdwkhaqYkL6zV_W3IuIs-17">
          <mxGeometry y="120" width="190" height="8" as="geometry" />
        </mxCell>
        <mxCell id="DdwkhaqYkL6zV_W3IuIs-20" value="&lt;span style=&quot;caret-color: rgb(0, 0, 0); color: rgb(0, 0, 0); font-family: -webkit-standard; font-size: medium; font-style: normal; font-variant-caps: normal; font-weight: 400; letter-spacing: normal; text-align: start; text-indent: 0px; text-transform: none; white-space: normal; word-spacing: 0px; -webkit-text-stroke-width: 0px; text-decoration: none; float: none; display: inline !important;&quot;&gt;+ addItem(): void&amp;nbsp;&lt;/span&gt;&lt;div&gt;&lt;span style=&quot;caret-color: rgb(0, 0, 0); color: rgb(0, 0, 0); font-family: -webkit-standard; font-size: medium; font-style: normal; font-variant-caps: normal; font-weight: 400; letter-spacing: normal; text-align: start; text-indent: 0px; text-transform: none; white-space: normal; word-spacing: 0px; -webkit-text-stroke-width: 0px; text-decoration: none; float: none; display: inline !important;&quot;&gt;+ removeItem(): void&amp;nbsp;&lt;/span&gt;&lt;/div&gt;&lt;div&gt;&lt;span style=&quot;caret-color: rgb(0, 0, 0); color: rgb(0, 0, 0); font-family: -webkit-standard; font-size: medium; font-style: normal; font-variant-caps: normal; font-weight: 400; letter-spacing: normal; text-align: start; text-indent: 0px; text-transform: none; white-space: normal; word-spacing: 0px; -webkit-text-stroke-width: 0px; text-decoration: none; float: none; display: inline !important;&quot;&gt;+ updateQuantity(): void&amp;nbsp;&lt;/span&gt;&lt;/div&gt;&lt;div&gt;&lt;span style=&quot;caret-color: rgb(0, 0, 0); color: rgb(0, 0, 0); font-family: -webkit-standard; font-size: medium; font-style: normal; font-variant-caps: normal; font-weight: 400; letter-spacing: normal; text-align: start; text-indent: 0px; text-transform: none; white-space: normal; word-spacing: 0px; -webkit-text-stroke-width: 0px; text-decoration: none; float: none; display: inline !important;&quot;&gt;+ calculateTotal(): Number + checkout(): Order&amp;nbsp;&lt;/span&gt;&lt;/div&gt;&lt;div&gt;&lt;span style=&quot;caret-color: rgb(0, 0, 0); color: rgb(0, 0, 0); font-family: -webkit-standard; font-size: medium; font-style: normal; font-variant-caps: normal; font-weight: 400; letter-spacing: normal; text-align: start; text-indent: 0px; text-transform: none; white-space: normal; word-spacing: 0px; -webkit-text-stroke-width: 0px; text-decoration: none; float: none; display: inline !important;&quot;&gt;+ clear(): void&lt;/span&gt;&lt;/div&gt;" style="text;strokeColor=none;fillColor=none;align=left;verticalAlign=top;spacingLeft=4;spacingRight=4;overflow=hidden;rotatable=0;points=[[0,0.5],[1,0.5]];portConstraint=eastwest;whiteSpace=wrap;html=1;labelBackgroundColor=none;" vertex="1" parent="DdwkhaqYkL6zV_W3IuIs-17">
          <mxGeometry y="128" width="190" height="142" as="geometry" />
        </mxCell>
        <mxCell id="DdwkhaqYkL6zV_W3IuIs-21" value="&lt;span style=&quot;caret-color: rgb(0, 0, 0); color: rgb(0, 0, 0); font-family: -webkit-standard; font-size: medium; font-style: normal; font-variant-caps: normal; font-weight: 400; letter-spacing: normal; orphans: auto; text-align: start; text-indent: 0px; text-transform: none; white-space: normal; widows: auto; word-spacing: 0px; -webkit-text-stroke-width: 0px; text-decoration: none; display: inline !important; float: none;&quot;&gt;Admin&lt;/span&gt;" style="swimlane;fontStyle=1;align=center;verticalAlign=top;childLayout=stackLayout;horizontal=1;startSize=26;horizontalStack=0;resizeParent=1;resizeParentMax=0;resizeLast=0;collapsible=1;marginBottom=0;whiteSpace=wrap;html=1;labelBackgroundColor=none;" vertex="1" parent="1">
          <mxGeometry x="1060" y="1201" width="220" height="180" as="geometry" />
        </mxCell>
        <mxCell id="DdwkhaqYkL6zV_W3IuIs-22" value="&lt;span style=&quot;caret-color: rgb(0, 0, 0); color: rgb(0, 0, 0); font-family: -webkit-standard; font-size: medium;&quot;&gt;- permissions: String[]&lt;/span&gt;&lt;div&gt;&lt;span style=&quot;caret-color: rgb(0, 0, 0); color: rgb(0, 0, 0); font-family: -webkit-standard; font-size: medium;&quot;&gt;&amp;nbsp;- lastLogin: Date&lt;/span&gt;&lt;/div&gt;" style="text;strokeColor=none;fillColor=none;align=left;verticalAlign=top;spacingLeft=4;spacingRight=4;overflow=hidden;rotatable=0;points=[[0,0.5],[1,0.5]];portConstraint=eastwest;whiteSpace=wrap;html=1;labelBackgroundColor=none;" vertex="1" parent="DdwkhaqYkL6zV_W3IuIs-21">
          <mxGeometry y="26" width="220" height="54" as="geometry" />
        </mxCell>
        <mxCell id="DdwkhaqYkL6zV_W3IuIs-23" value="" style="line;strokeWidth=1;fillColor=none;align=left;verticalAlign=middle;spacingTop=-1;spacingLeft=3;spacingRight=3;rotatable=0;labelPosition=right;points=[];portConstraint=eastwest;labelBackgroundColor=none;" vertex="1" parent="DdwkhaqYkL6zV_W3IuIs-21">
          <mxGeometry y="80" width="220" height="8" as="geometry" />
        </mxCell>
        <mxCell id="DdwkhaqYkL6zV_W3IuIs-24" value="&lt;span style=&quot;caret-color: rgb(0, 0, 0); color: rgb(0, 0, 0); font-family: -webkit-standard; font-size: medium;&quot;&gt;+ manageUsers(): void&amp;nbsp;&lt;/span&gt;&lt;div&gt;&lt;span style=&quot;caret-color: rgb(0, 0, 0); color: rgb(0, 0, 0); font-family: -webkit-standard; font-size: medium;&quot;&gt;+ verifyProducts(): void&amp;nbsp;&lt;/span&gt;&lt;/div&gt;&lt;div&gt;&lt;span style=&quot;caret-color: rgb(0, 0, 0); color: rgb(0, 0, 0); font-family: -webkit-standard; font-size: medium;&quot;&gt;+generateSystemReports():void&amp;nbsp;&lt;/span&gt;&lt;/div&gt;&lt;div&gt;&lt;span style=&quot;caret-color: rgb(0, 0, 0); color: rgb(0, 0, 0); font-family: -webkit-standard; font-size: medium;&quot;&gt;+ configureSystem(): void&lt;/span&gt;&lt;/div&gt;" style="text;strokeColor=none;fillColor=none;align=left;verticalAlign=top;spacingLeft=4;spacingRight=4;overflow=hidden;rotatable=0;points=[[0,0.5],[1,0.5]];portConstraint=eastwest;whiteSpace=wrap;html=1;labelBackgroundColor=none;" vertex="1" parent="DdwkhaqYkL6zV_W3IuIs-21">
          <mxGeometry y="88" width="220" height="92" as="geometry" />
        </mxCell>
        <mxCell id="DdwkhaqYkL6zV_W3IuIs-25" value="&lt;span style=&quot;caret-color: rgb(0, 0, 0); color: rgb(0, 0, 0); font-family: -webkit-standard; font-size: medium; font-style: normal; font-variant-caps: normal; font-weight: 400; letter-spacing: normal; orphans: auto; text-align: start; text-indent: 0px; text-transform: none; white-space: normal; widows: auto; word-spacing: 0px; -webkit-text-stroke-width: 0px; text-decoration: none; display: inline !important; float: none;&quot;&gt;OrderItem&lt;/span&gt;" style="swimlane;fontStyle=1;align=center;verticalAlign=top;childLayout=stackLayout;horizontal=1;startSize=26;horizontalStack=0;resizeParent=1;resizeParentMax=0;resizeLast=0;collapsible=1;marginBottom=0;whiteSpace=wrap;html=1;labelBackgroundColor=none;" vertex="1" parent="1">
          <mxGeometry x="1130" y="1567" width="190" height="190" as="geometry" />
        </mxCell>
        <mxCell id="DdwkhaqYkL6zV_W3IuIs-26" value="&lt;span style=&quot;caret-color: rgb(0, 0, 0); color: rgb(0, 0, 0); font-family: -webkit-standard; font-size: medium; font-style: normal; font-variant-caps: normal; font-weight: 400; letter-spacing: normal; text-align: start; text-indent: 0px; text-transform: none; white-space: normal; word-spacing: 0px; -webkit-text-stroke-width: 0px; text-decoration: none; float: none; display: inline !important;&quot;&gt;- productId: String&lt;/span&gt;&lt;div&gt;&lt;span style=&quot;caret-color: rgb(0, 0, 0); color: rgb(0, 0, 0); font-family: -webkit-standard; font-size: medium; font-style: normal; font-variant-caps: normal; font-weight: 400; letter-spacing: normal; text-align: start; text-indent: 0px; text-transform: none; white-space: normal; word-spacing: 0px; -webkit-text-stroke-width: 0px; text-decoration: none; float: none; display: inline !important;&quot;&gt;&amp;nbsp;- quantity: Number&lt;/span&gt;&lt;/div&gt;&lt;div&gt;&lt;span style=&quot;caret-color: rgb(0, 0, 0); color: rgb(0, 0, 0); font-family: -webkit-standard; font-size: medium; font-style: normal; font-variant-caps: normal; font-weight: 400; letter-spacing: normal; text-align: start; text-indent: 0px; text-transform: none; white-space: normal; word-spacing: 0px; -webkit-text-stroke-width: 0px; text-decoration: none; float: none; display: inline !important;&quot;&gt;&amp;nbsp;- unitPrice: Number&amp;nbsp;&lt;/span&gt;&lt;/div&gt;&lt;div&gt;&lt;span style=&quot;caret-color: rgb(0, 0, 0); color: rgb(0, 0, 0); font-family: -webkit-standard; font-size: medium; font-style: normal; font-variant-caps: normal; font-weight: 400; letter-spacing: normal; text-align: start; text-indent: 0px; text-transform: none; white-space: normal; word-spacing: 0px; -webkit-text-stroke-width: 0px; text-decoration: none; float: none; display: inline !important;&quot;&gt;- totalPrice: Number&lt;/span&gt;&lt;/div&gt;" style="text;strokeColor=none;fillColor=none;align=left;verticalAlign=top;spacingLeft=4;spacingRight=4;overflow=hidden;rotatable=0;points=[[0,0.5],[1,0.5]];portConstraint=eastwest;whiteSpace=wrap;html=1;labelBackgroundColor=none;" vertex="1" parent="DdwkhaqYkL6zV_W3IuIs-25">
          <mxGeometry y="26" width="190" height="94" as="geometry" />
        </mxCell>
        <mxCell id="DdwkhaqYkL6zV_W3IuIs-27" value="" style="line;strokeWidth=1;fillColor=none;align=left;verticalAlign=middle;spacingTop=-1;spacingLeft=3;spacingRight=3;rotatable=0;labelPosition=right;points=[];portConstraint=eastwest;labelBackgroundColor=none;" vertex="1" parent="DdwkhaqYkL6zV_W3IuIs-25">
          <mxGeometry y="120" width="190" height="8" as="geometry" />
        </mxCell>
        <mxCell id="DdwkhaqYkL6zV_W3IuIs-28" value="&lt;span style=&quot;caret-color: rgb(0, 0, 0); color: rgb(0, 0, 0); font-family: -webkit-standard; font-size: medium; font-style: normal; font-variant-caps: normal; font-weight: 400; letter-spacing: normal; orphans: auto; text-align: start; text-indent: 0px; text-transform: none; white-space: normal; widows: auto; word-spacing: 0px; -webkit-text-stroke-width: 0px; text-decoration: none; display: inline !important; float: none;&quot;&gt;+ calculateTotal(): Number + updateQuantity(): void&lt;/span&gt;" style="text;strokeColor=none;fillColor=none;align=left;verticalAlign=top;spacingLeft=4;spacingRight=4;overflow=hidden;rotatable=0;points=[[0,0.5],[1,0.5]];portConstraint=eastwest;whiteSpace=wrap;html=1;labelBackgroundColor=none;" vertex="1" parent="DdwkhaqYkL6zV_W3IuIs-25">
          <mxGeometry y="128" width="190" height="62" as="geometry" />
        </mxCell>
        <mxCell id="DdwkhaqYkL6zV_W3IuIs-29" value="&lt;span style=&quot;caret-color: rgb(0, 0, 0); color: rgb(0, 0, 0); font-family: -webkit-standard; font-size: medium; font-style: normal; font-variant-caps: normal; font-weight: 400; letter-spacing: normal; orphans: auto; text-align: start; text-indent: 0px; text-transform: none; white-space: normal; widows: auto; word-spacing: 0px; -webkit-text-stroke-width: 0px; text-decoration: none; display: inline !important; float: none;&quot;&gt;Order&lt;/span&gt;" style="swimlane;fontStyle=1;align=center;verticalAlign=top;childLayout=stackLayout;horizontal=1;startSize=26;horizontalStack=0;resizeParent=1;resizeParentMax=0;resizeLast=0;collapsible=1;marginBottom=0;whiteSpace=wrap;html=1;labelBackgroundColor=none;" vertex="1" parent="1">
          <mxGeometry x="750" y="1557" width="230" height="260" as="geometry" />
        </mxCell>
        <mxCell id="DdwkhaqYkL6zV_W3IuIs-30" value="&lt;span style=&quot;caret-color: rgb(0, 0, 0); color: rgb(0, 0, 0); font-family: -webkit-standard; font-size: medium; font-style: normal; font-variant-caps: normal; font-weight: 400; letter-spacing: normal; text-align: start; text-indent: 0px; text-transform: none; white-space: normal; word-spacing: 0px; -webkit-text-stroke-width: 0px; text-decoration: none; float: none; display: inline !important;&quot;&gt;- id: String - customerId: String&amp;nbsp;&lt;/span&gt;&lt;div&gt;&lt;span style=&quot;caret-color: rgb(0, 0, 0); color: rgb(0, 0, 0); font-family: -webkit-standard; font-size: medium; font-style: normal; font-variant-caps: normal; font-weight: 400; letter-spacing: normal; text-align: start; text-indent: 0px; text-transform: none; white-space: normal; word-spacing: 0px; -webkit-text-stroke-width: 0px; text-decoration: none; float: none; display: inline !important;&quot;&gt;- orderItems: OrderItem[]&lt;/span&gt;&lt;/div&gt;&lt;div&gt;&lt;span style=&quot;caret-color: rgb(0, 0, 0); color: rgb(0, 0, 0); font-family: -webkit-standard; font-size: medium; font-style: normal; font-variant-caps: normal; font-weight: 400; letter-spacing: normal; text-align: start; text-indent: 0px; text-transform: none; white-space: normal; word-spacing: 0px; -webkit-text-stroke-width: 0px; text-decoration: none; float: none; display: inline !important;&quot;&gt;&amp;nbsp;- totalAmount: Number&amp;nbsp;&lt;/span&gt;&lt;/div&gt;&lt;div&gt;&lt;span style=&quot;caret-color: rgb(0, 0, 0); color: rgb(0, 0, 0); font-family: -webkit-standard; font-size: medium; font-style: normal; font-variant-caps: normal; font-weight: 400; letter-spacing: normal; text-align: start; text-indent: 0px; text-transform: none; white-space: normal; word-spacing: 0px; -webkit-text-stroke-width: 0px; text-decoration: none; float: none; display: inline !important;&quot;&gt;- status: OrderStatus&amp;nbsp;&lt;/span&gt;&lt;/div&gt;&lt;div&gt;&lt;span style=&quot;caret-color: rgb(0, 0, 0); color: rgb(0, 0, 0); font-family: -webkit-standard; font-size: medium; font-style: normal; font-variant-caps: normal; font-weight: 400; letter-spacing: normal; text-align: start; text-indent: 0px; text-transform: none; white-space: normal; word-spacing: 0px; -webkit-text-stroke-width: 0px; text-decoration: none; float: none; display: inline !important;&quot;&gt;- orderDate: Date&amp;nbsp;&lt;/span&gt;&lt;/div&gt;&lt;div&gt;&lt;span style=&quot;caret-color: rgb(0, 0, 0); color: rgb(0, 0, 0); font-family: -webkit-standard; font-size: medium; font-style: normal; font-variant-caps: normal; font-weight: 400; letter-spacing: normal; text-align: start; text-indent: 0px; text-transform: none; white-space: normal; word-spacing: 0px; -webkit-text-stroke-width: 0px; text-decoration: none; float: none; display: inline !important;&quot;&gt;- shippingAddress: String&lt;/span&gt;&lt;/div&gt;" style="text;strokeColor=none;fillColor=none;align=left;verticalAlign=top;spacingLeft=4;spacingRight=4;overflow=hidden;rotatable=0;points=[[0,0.5],[1,0.5]];portConstraint=eastwest;whiteSpace=wrap;html=1;labelBackgroundColor=none;" vertex="1" parent="DdwkhaqYkL6zV_W3IuIs-29">
          <mxGeometry y="26" width="230" height="134" as="geometry" />
        </mxCell>
        <mxCell id="DdwkhaqYkL6zV_W3IuIs-31" value="" style="line;strokeWidth=1;fillColor=none;align=left;verticalAlign=middle;spacingTop=-1;spacingLeft=3;spacingRight=3;rotatable=0;labelPosition=right;points=[];portConstraint=eastwest;labelBackgroundColor=none;" vertex="1" parent="DdwkhaqYkL6zV_W3IuIs-29">
          <mxGeometry y="160" width="230" height="8" as="geometry" />
        </mxCell>
        <mxCell id="DdwkhaqYkL6zV_W3IuIs-32" value="&lt;span style=&quot;caret-color: rgb(0, 0, 0); color: rgb(0, 0, 0); font-family: -webkit-standard; font-size: medium; font-style: normal; font-variant-caps: normal; font-weight: 400; letter-spacing: normal; text-align: start; text-indent: 0px; text-transform: none; white-space: normal; word-spacing: 0px; -webkit-text-stroke-width: 0px; text-decoration: none; float: none; display: inline !important;&quot;&gt;+ calculateTotal(): Number&amp;nbsp;&lt;/span&gt;&lt;div&gt;&lt;span style=&quot;caret-color: rgb(0, 0, 0); color: rgb(0, 0, 0); font-family: -webkit-standard; font-size: medium; font-style: normal; font-variant-caps: normal; font-weight: 400; letter-spacing: normal; text-align: start; text-indent: 0px; text-transform: none; white-space: normal; word-spacing: 0px; -webkit-text-stroke-width: 0px; text-decoration: none; float: none; display: inline !important;&quot;&gt;+ updateStatus(): void&amp;nbsp;&lt;/span&gt;&lt;/div&gt;&lt;div&gt;&lt;span style=&quot;caret-color: rgb(0, 0, 0); color: rgb(0, 0, 0); font-family: -webkit-standard; font-size: medium; font-style: normal; font-variant-caps: normal; font-weight: 400; letter-spacing: normal; text-align: start; text-indent: 0px; text-transform: none; white-space: normal; word-spacing: 0px; -webkit-text-stroke-width: 0px; text-decoration: none; float: none; display: inline !important;&quot;&gt;+ cancelOrder(): void&amp;nbsp;&lt;/span&gt;&lt;/div&gt;&lt;div&gt;&lt;span style=&quot;caret-color: rgb(0, 0, 0); color: rgb(0, 0, 0); font-family: -webkit-standard; font-size: medium; font-style: normal; font-variant-caps: normal; font-weight: 400; letter-spacing: normal; text-align: start; text-indent: 0px; text-transform: none; white-space: normal; word-spacing: 0px; -webkit-text-stroke-width: 0px; text-decoration: none; float: none; display: inline !important;&quot;&gt;+ generateInvoice(): String&lt;/span&gt;&lt;/div&gt;" style="text;strokeColor=none;fillColor=none;align=left;verticalAlign=top;spacingLeft=4;spacingRight=4;overflow=hidden;rotatable=0;points=[[0,0.5],[1,0.5]];portConstraint=eastwest;whiteSpace=wrap;html=1;labelBackgroundColor=none;" vertex="1" parent="DdwkhaqYkL6zV_W3IuIs-29">
          <mxGeometry y="168" width="230" height="92" as="geometry" />
        </mxCell>
        <mxCell id="DdwkhaqYkL6zV_W3IuIs-33" value="&lt;span style=&quot;caret-color: rgb(0, 0, 0); color: rgb(0, 0, 0); font-family: -webkit-standard; font-size: medium; font-style: normal; font-variant-caps: normal; font-weight: 400; letter-spacing: normal; orphans: auto; text-align: start; text-indent: 0px; text-transform: none; white-space: normal; widows: auto; word-spacing: 0px; -webkit-text-stroke-width: 0px; text-decoration: none; display: inline !important; float: none;&quot;&gt;Payment&lt;/span&gt;" style="swimlane;fontStyle=1;align=center;verticalAlign=top;childLayout=stackLayout;horizontal=1;startSize=26;horizontalStack=0;resizeParent=1;resizeParentMax=0;resizeLast=0;collapsible=1;marginBottom=0;whiteSpace=wrap;html=1;labelBackgroundColor=none;" vertex="1" parent="1">
          <mxGeometry x="80" y="1961" width="210" height="290" as="geometry" />
        </mxCell>
        <mxCell id="DdwkhaqYkL6zV_W3IuIs-34" value="&lt;span style=&quot;caret-color: rgb(0, 0, 0); color: rgb(0, 0, 0); font-family: -webkit-standard; font-size: medium; font-style: normal; font-variant-caps: normal; font-weight: 400; letter-spacing: normal; text-align: start; text-indent: 0px; text-transform: none; white-space: normal; word-spacing: 0px; -webkit-text-stroke-width: 0px; text-decoration: none; float: none; display: inline !important;&quot;&gt;- id: String&amp;nbsp;&lt;/span&gt;&lt;div&gt;&lt;span style=&quot;caret-color: rgb(0, 0, 0); color: rgb(0, 0, 0); font-family: -webkit-standard; font-size: medium; font-style: normal; font-variant-caps: normal; font-weight: 400; letter-spacing: normal; text-align: start; text-indent: 0px; text-transform: none; white-space: normal; word-spacing: 0px; -webkit-text-stroke-width: 0px; text-decoration: none; float: none; display: inline !important;&quot;&gt;- orderId: String&amp;nbsp;&lt;/span&gt;&lt;/div&gt;&lt;div&gt;&lt;span style=&quot;caret-color: rgb(0, 0, 0); color: rgb(0, 0, 0); font-family: -webkit-standard; font-size: medium; font-style: normal; font-variant-caps: normal; font-weight: 400; letter-spacing: normal; text-align: start; text-indent: 0px; text-transform: none; white-space: normal; word-spacing: 0px; -webkit-text-stroke-width: 0px; text-decoration: none; float: none; display: inline !important;&quot;&gt;- amount: Number&amp;nbsp;&lt;/span&gt;&lt;/div&gt;&lt;div&gt;&lt;span style=&quot;caret-color: rgb(0, 0, 0); color: rgb(0, 0, 0); font-family: -webkit-standard; font-size: medium; font-style: normal; font-variant-caps: normal; font-weight: 400; letter-spacing: normal; text-align: start; text-indent: 0px; text-transform: none; white-space: normal; word-spacing: 0px; -webkit-text-stroke-width: 0px; text-decoration: none; float: none; display: inline !important;&quot;&gt;- method: PaymentMethod&amp;nbsp;&lt;/span&gt;&lt;/div&gt;&lt;div&gt;&lt;span style=&quot;caret-color: rgb(0, 0, 0); color: rgb(0, 0, 0); font-family: -webkit-standard; font-size: medium; font-style: normal; font-variant-caps: normal; font-weight: 400; letter-spacing: normal; text-align: start; text-indent: 0px; text-transform: none; white-space: normal; word-spacing: 0px; -webkit-text-stroke-width: 0px; text-decoration: none; float: none; display: inline !important;&quot;&gt;- status: PaymentStatus&amp;nbsp;&lt;/span&gt;&lt;/div&gt;&lt;div&gt;&lt;span style=&quot;caret-color: rgb(0, 0, 0); color: rgb(0, 0, 0); font-family: -webkit-standard; font-size: medium; font-style: normal; font-variant-caps: normal; font-weight: 400; letter-spacing: normal; text-align: start; text-indent: 0px; text-transform: none; white-space: normal; word-spacing: 0px; -webkit-text-stroke-width: 0px; text-decoration: none; float: none; display: inline !important;&quot;&gt;- transactionId: String&amp;nbsp;&lt;/span&gt;&lt;/div&gt;&lt;div&gt;&lt;span style=&quot;caret-color: rgb(0, 0, 0); color: rgb(0, 0, 0); font-family: -webkit-standard; font-size: medium; font-style: normal; font-variant-caps: normal; font-weight: 400; letter-spacing: normal; text-align: start; text-indent: 0px; text-transform: none; white-space: normal; word-spacing: 0px; -webkit-text-stroke-width: 0px; text-decoration: none; float: none; display: inline !important;&quot;&gt;- paymentDate: Date&lt;/span&gt;&lt;/div&gt;" style="text;strokeColor=none;fillColor=none;align=left;verticalAlign=top;spacingLeft=4;spacingRight=4;overflow=hidden;rotatable=0;points=[[0,0.5],[1,0.5]];portConstraint=eastwest;whiteSpace=wrap;html=1;labelBackgroundColor=none;" vertex="1" parent="DdwkhaqYkL6zV_W3IuIs-33">
          <mxGeometry y="26" width="210" height="164" as="geometry" />
        </mxCell>
        <mxCell id="DdwkhaqYkL6zV_W3IuIs-35" value="" style="line;strokeWidth=1;fillColor=none;align=left;verticalAlign=middle;spacingTop=-1;spacingLeft=3;spacingRight=3;rotatable=0;labelPosition=right;points=[];portConstraint=eastwest;labelBackgroundColor=none;" vertex="1" parent="DdwkhaqYkL6zV_W3IuIs-33">
          <mxGeometry y="190" width="210" height="8" as="geometry" />
        </mxCell>
        <mxCell id="DdwkhaqYkL6zV_W3IuIs-36" value="&lt;span style=&quot;caret-color: rgb(0, 0, 0); color: rgb(0, 0, 0); font-family: -webkit-standard; font-size: medium; font-style: normal; font-variant-caps: normal; font-weight: 400; letter-spacing: normal; text-align: start; text-indent: 0px; text-transform: none; white-space: normal; word-spacing: 0px; -webkit-text-stroke-width: 0px; text-decoration: none; float: none; display: inline !important;&quot;&gt;+ processPayment(): Boolean + refund(): Boolean&amp;nbsp;&lt;/span&gt;&lt;div&gt;&lt;span style=&quot;caret-color: rgb(0, 0, 0); color: rgb(0, 0, 0); font-family: -webkit-standard; font-size: medium; font-style: normal; font-variant-caps: normal; font-weight: 400; letter-spacing: normal; text-align: start; text-indent: 0px; text-transform: none; white-space: normal; word-spacing: 0px; -webkit-text-stroke-width: 0px; text-decoration: none; float: none; display: inline !important;&quot;&gt;+ validatePayment(): Boolean&lt;/span&gt;&lt;/div&gt;" style="text;strokeColor=none;fillColor=none;align=left;verticalAlign=top;spacingLeft=4;spacingRight=4;overflow=hidden;rotatable=0;points=[[0,0.5],[1,0.5]];portConstraint=eastwest;whiteSpace=wrap;html=1;labelBackgroundColor=none;" vertex="1" parent="DdwkhaqYkL6zV_W3IuIs-33">
          <mxGeometry y="198" width="210" height="92" as="geometry" />
        </mxCell>
        <mxCell id="DdwkhaqYkL6zV_W3IuIs-37" value="&lt;span style=&quot;caret-color: rgb(0, 0, 0); color: rgb(0, 0, 0); font-family: -webkit-standard; font-size: medium; font-style: normal; font-variant-caps: normal; font-weight: 400; letter-spacing: normal; orphans: auto; text-align: start; text-indent: 0px; text-transform: none; white-space: normal; widows: auto; word-spacing: 0px; -webkit-text-stroke-width: 0px; text-decoration: none; display: inline !important; float: none;&quot;&gt;Customer&lt;/span&gt;" style="swimlane;fontStyle=1;align=center;verticalAlign=top;childLayout=stackLayout;horizontal=1;startSize=26;horizontalStack=0;resizeParent=1;resizeParentMax=0;resizeLast=0;collapsible=1;marginBottom=0;whiteSpace=wrap;html=1;labelBackgroundColor=none;" vertex="1" parent="1">
          <mxGeometry x="455" y="1201" width="210" height="210" as="geometry" />
        </mxCell>
        <mxCell id="DdwkhaqYkL6zV_W3IuIs-38" value="&lt;span style=&quot;caret-color: rgb(0, 0, 0); color: rgb(0, 0, 0); font-family: -webkit-standard; font-size: medium; font-style: normal; font-variant-caps: normal; font-weight: 400; letter-spacing: normal; text-align: start; text-indent: 0px; text-transform: none; white-space: normal; word-spacing: 0px; -webkit-text-stroke-width: 0px; text-decoration: none; float: none; display: inline !important;&quot;&gt;- address: String&amp;nbsp;&lt;/span&gt;&lt;div&gt;&lt;span style=&quot;caret-color: rgb(0, 0, 0); color: rgb(0, 0, 0); font-family: -webkit-standard; font-size: medium; font-style: normal; font-variant-caps: normal; font-weight: 400; letter-spacing: normal; text-align: start; text-indent: 0px; text-transform: none; white-space: normal; word-spacing: 0px; -webkit-text-stroke-width: 0px; text-decoration: none; float: none; display: inline !important;&quot;&gt;- wishlist: Product[]&lt;/span&gt;&lt;div&gt;&lt;span style=&quot;color: light-dark(rgb(0, 0, 0), rgb(237, 237, 237)); font-family: -webkit-standard; font-size: medium; caret-color: light-dark(rgb(0, 0, 0), rgb(237, 237, 237)); background-color: transparent;&quot;&gt;- loyaltyPoints: Number&lt;/span&gt;&lt;/div&gt;&lt;/div&gt;" style="text;strokeColor=none;fillColor=none;align=left;verticalAlign=top;spacingLeft=4;spacingRight=4;overflow=hidden;rotatable=0;points=[[0,0.5],[1,0.5]];portConstraint=eastwest;whiteSpace=wrap;html=1;labelBackgroundColor=none;" vertex="1" parent="DdwkhaqYkL6zV_W3IuIs-37">
          <mxGeometry y="26" width="210" height="84" as="geometry" />
        </mxCell>
        <mxCell id="DdwkhaqYkL6zV_W3IuIs-39" value="" style="line;strokeWidth=1;fillColor=none;align=left;verticalAlign=middle;spacingTop=-1;spacingLeft=3;spacingRight=3;rotatable=0;labelPosition=right;points=[];portConstraint=eastwest;labelBackgroundColor=none;" vertex="1" parent="DdwkhaqYkL6zV_W3IuIs-37">
          <mxGeometry y="110" width="210" height="8" as="geometry" />
        </mxCell>
        <mxCell id="DdwkhaqYkL6zV_W3IuIs-40" value="&lt;span style=&quot;caret-color: rgb(0, 0, 0); color: rgb(0, 0, 0); font-family: -webkit-standard; font-size: medium;&quot;&gt;+browseProducts():Product[]&amp;nbsp;&lt;/span&gt;&lt;div&gt;&lt;span style=&quot;caret-color: rgb(0, 0, 0); color: rgb(0, 0, 0); font-family: -webkit-standard; font-size: medium;&quot;&gt;+ addToCart():&lt;/span&gt;&lt;span style=&quot;color: light-dark(rgb(0, 0, 0), rgb(237, 237, 237)); font-family: -webkit-standard; font-size: medium; caret-color: light-dark(rgb(0, 0, 0), rgb(237, 237, 237)); background-color: transparent;&quot;&gt;void&amp;nbsp;&lt;/span&gt;&lt;/div&gt;&lt;div&gt;&lt;span style=&quot;caret-color: rgb(0, 0, 0); color: rgb(0, 0, 0); font-family: -webkit-standard; font-size: medium;&quot;&gt;+ placeOrder():&lt;/span&gt;&lt;span style=&quot;color: light-dark(rgb(0, 0, 0), rgb(237, 237, 237)); font-family: -webkit-standard; font-size: medium; caret-color: light-dark(rgb(0, 0, 0), rgb(237, 237, 237)); background-color: transparent;&quot;&gt;Order&lt;/span&gt;&lt;/div&gt;&lt;div&gt;&lt;span style=&quot;background-color: transparent; color: light-dark(rgb(0, 0, 0), rgb(237, 237, 237)); font-family: -webkit-standard; font-size: medium; caret-color: light-dark(rgb(0, 0, 0), rgb(237, 237, 237));&quot;&gt;+ trackOrder(): String&lt;/span&gt;&lt;/div&gt;" style="text;strokeColor=none;fillColor=none;align=left;verticalAlign=top;spacingLeft=4;spacingRight=4;overflow=hidden;rotatable=0;points=[[0,0.5],[1,0.5]];portConstraint=eastwest;whiteSpace=wrap;html=1;labelBackgroundColor=none;" vertex="1" parent="DdwkhaqYkL6zV_W3IuIs-37">
          <mxGeometry y="118" width="210" height="92" as="geometry" />
        </mxCell>
        <mxCell id="DdwkhaqYkL6zV_W3IuIs-41" value="" style="endArrow=none;html=1;rounded=0;exitX=0.25;exitY=0;exitDx=0;exitDy=0;labelBackgroundColor=none;fontColor=default;" edge="1" parent="DdwkhaqYkL6zV_W3IuIs-37" source="DdwkhaqYkL6zV_W3IuIs-29">
          <mxGeometry width="50" height="50" relative="1" as="geometry">
            <mxPoint x="25" y="250" as="sourcePoint" />
            <mxPoint x="95" y="210" as="targetPoint" />
          </mxGeometry>
        </mxCell>
        <mxCell id="DdwkhaqYkL6zV_W3IuIs-42" value="&lt;span style=&quot;caret-color: rgb(0, 0, 0); color: rgb(0, 0, 0); font-family: -webkit-standard; font-size: medium; font-style: normal; font-variant-caps: normal; font-weight: 400; letter-spacing: normal; orphans: auto; text-align: start; text-indent: 0px; text-transform: none; white-space: normal; widows: auto; word-spacing: 0px; -webkit-text-stroke-width: 0px; text-decoration: none; display: inline !important; float: none;&quot;&gt;CartItem&lt;/span&gt;" style="swimlane;fontStyle=1;align=center;verticalAlign=top;childLayout=stackLayout;horizontal=1;startSize=26;horizontalStack=0;resizeParent=1;resizeParentMax=0;resizeLast=0;collapsible=1;marginBottom=0;whiteSpace=wrap;html=1;labelBackgroundColor=none;" vertex="1" parent="1">
          <mxGeometry x="760" y="2001" width="190" height="170" as="geometry" />
        </mxCell>
        <mxCell id="DdwkhaqYkL6zV_W3IuIs-43" value="&lt;span style=&quot;caret-color: rgb(0, 0, 0); color: rgb(0, 0, 0); font-family: -webkit-standard; font-size: medium; font-style: normal; font-variant-caps: normal; font-weight: 400; letter-spacing: normal; text-align: start; text-indent: 0px; text-transform: none; white-space: normal; word-spacing: 0px; -webkit-text-stroke-width: 0px; text-decoration: none; float: none; display: inline !important;&quot;&gt;- productId: String&amp;nbsp;&lt;/span&gt;&lt;div&gt;&lt;span style=&quot;caret-color: rgb(0, 0, 0); color: rgb(0, 0, 0); font-family: -webkit-standard; font-size: medium; font-style: normal; font-variant-caps: normal; font-weight: 400; letter-spacing: normal; text-align: start; text-indent: 0px; text-transform: none; white-space: normal; word-spacing: 0px; -webkit-text-stroke-width: 0px; text-decoration: none; float: none; display: inline !important;&quot;&gt;- quantity: Number&amp;nbsp;&lt;/span&gt;&lt;/div&gt;&lt;div&gt;&lt;span style=&quot;caret-color: rgb(0, 0, 0); color: rgb(0, 0, 0); font-family: -webkit-standard; font-size: medium; font-style: normal; font-variant-caps: normal; font-weight: 400; letter-spacing: normal; text-align: start; text-indent: 0px; text-transform: none; white-space: normal; word-spacing: 0px; -webkit-text-stroke-width: 0px; text-decoration: none; float: none; display: inline !important;&quot;&gt;- unitPrice: Number&lt;/span&gt;&lt;/div&gt;" style="text;strokeColor=none;fillColor=none;align=left;verticalAlign=top;spacingLeft=4;spacingRight=4;overflow=hidden;rotatable=0;points=[[0,0.5],[1,0.5]];portConstraint=eastwest;whiteSpace=wrap;html=1;labelBackgroundColor=none;" vertex="1" parent="DdwkhaqYkL6zV_W3IuIs-42">
          <mxGeometry y="26" width="190" height="104" as="geometry" />
        </mxCell>
        <mxCell id="DdwkhaqYkL6zV_W3IuIs-44" value="" style="line;strokeWidth=1;fillColor=none;align=left;verticalAlign=middle;spacingTop=-1;spacingLeft=3;spacingRight=3;rotatable=0;labelPosition=right;points=[];portConstraint=eastwest;labelBackgroundColor=none;" vertex="1" parent="DdwkhaqYkL6zV_W3IuIs-42">
          <mxGeometry y="130" width="190" height="8" as="geometry" />
        </mxCell>
        <mxCell id="DdwkhaqYkL6zV_W3IuIs-45" value="&lt;span style=&quot;caret-color: rgb(0, 0, 0); color: rgb(0, 0, 0); font-family: -webkit-standard; font-size: medium; font-style: normal; font-variant-caps: normal; font-weight: 400; letter-spacing: normal; orphans: auto; text-align: start; text-indent: 0px; text-transform: none; white-space: normal; widows: auto; word-spacing: 0px; -webkit-text-stroke-width: 0px; text-decoration: none; display: inline !important; float: none;&quot;&gt;+ calculateTotal(): Number&lt;/span&gt;" style="text;strokeColor=none;fillColor=none;align=left;verticalAlign=top;spacingLeft=4;spacingRight=4;overflow=hidden;rotatable=0;points=[[0,0.5],[1,0.5]];portConstraint=eastwest;whiteSpace=wrap;html=1;labelBackgroundColor=none;" vertex="1" parent="DdwkhaqYkL6zV_W3IuIs-42">
          <mxGeometry y="138" width="190" height="32" as="geometry" />
        </mxCell>
        <mxCell id="DdwkhaqYkL6zV_W3IuIs-46" value="Extends" style="endArrow=block;endSize=16;endFill=0;html=1;rounded=0;entryX=0.75;entryY=0;entryDx=0;entryDy=0;labelBackgroundColor=none;fontColor=default;" edge="1" parent="1">
          <mxGeometry width="160" relative="1" as="geometry">
            <mxPoint x="1190" y="1131" as="sourcePoint" />
            <mxPoint x="210.5" y="1201" as="targetPoint" />
            <Array as="points">
              <mxPoint x="210" y="1131" />
            </Array>
          </mxGeometry>
        </mxCell>
        <mxCell id="DdwkhaqYkL6zV_W3IuIs-47" value="" style="endArrow=none;html=1;rounded=0;exitX=0.474;exitY=0.005;exitDx=0;exitDy=0;exitPerimeter=0;labelBackgroundColor=none;fontColor=default;" edge="1" parent="1" source="DdwkhaqYkL6zV_W3IuIs-5">
          <mxGeometry width="50" height="50" relative="1" as="geometry">
            <mxPoint x="790" y="1181" as="sourcePoint" />
            <mxPoint x="840" y="1131" as="targetPoint" />
          </mxGeometry>
        </mxCell>
        <mxCell id="DdwkhaqYkL6zV_W3IuIs-48" value="" style="endArrow=none;html=1;rounded=0;exitX=0.551;exitY=0.008;exitDx=0;exitDy=0;exitPerimeter=0;labelBackgroundColor=none;fontColor=default;" edge="1" parent="1" source="DdwkhaqYkL6zV_W3IuIs-37">
          <mxGeometry width="50" height="50" relative="1" as="geometry">
            <mxPoint x="569.72" y="1201" as="sourcePoint" />
            <mxPoint x="569.72" y="1130" as="targetPoint" />
          </mxGeometry>
        </mxCell>
        <mxCell id="DdwkhaqYkL6zV_W3IuIs-49" value="" style="endArrow=none;html=1;rounded=0;exitX=0.579;exitY=-0.002;exitDx=0;exitDy=0;exitPerimeter=0;labelBackgroundColor=none;fontColor=default;" edge="1" parent="1" source="DdwkhaqYkL6zV_W3IuIs-21">
          <mxGeometry width="50" height="50" relative="1" as="geometry">
            <mxPoint x="1170" y="1201" as="sourcePoint" />
            <mxPoint x="1190" y="1131" as="targetPoint" />
          </mxGeometry>
        </mxCell>
        <mxCell id="DdwkhaqYkL6zV_W3IuIs-50" value="1" style="text;align=center;fontStyle=1;verticalAlign=middle;spacingLeft=3;spacingRight=3;strokeColor=none;rotatable=0;points=[[0,0.5],[1,0.5]];portConstraint=eastwest;html=1;labelBackgroundColor=none;" vertex="1" parent="1">
          <mxGeometry x="500" y="1411" width="80" height="26" as="geometry" />
        </mxCell>
        <mxCell id="DdwkhaqYkL6zV_W3IuIs-51" value="" style="endArrow=none;html=1;rounded=0;entryX=0;entryY=0.5;entryDx=0;entryDy=0;exitX=0.995;exitY=0.06;exitDx=0;exitDy=0;exitPerimeter=0;labelBackgroundColor=none;fontColor=default;" edge="1" parent="1" source="DdwkhaqYkL6zV_W3IuIs-9">
          <mxGeometry width="50" height="50" relative="1" as="geometry">
            <mxPoint x="290" y="1567" as="sourcePoint" />
            <mxPoint x="750" y="1421.0000000000002" as="targetPoint" />
          </mxGeometry>
        </mxCell>
        <mxCell id="DdwkhaqYkL6zV_W3IuIs-52" value="1" style="text;align=center;fontStyle=1;verticalAlign=middle;spacingLeft=3;spacingRight=3;strokeColor=none;rotatable=0;points=[[0,0.5],[1,0.5]];portConstraint=eastwest;html=1;labelBackgroundColor=none;" vertex="1" parent="1">
          <mxGeometry x="690" y="1401" width="80" height="26" as="geometry" />
        </mxCell>
        <mxCell id="DdwkhaqYkL6zV_W3IuIs-53" value="" style="endArrow=none;html=1;rounded=0;exitX=1.006;exitY=0.11;exitDx=0;exitDy=0;exitPerimeter=0;entryX=0.006;entryY=0.116;entryDx=0;entryDy=0;entryPerimeter=0;labelBackgroundColor=none;fontColor=default;" edge="1" parent="1" source="DdwkhaqYkL6zV_W3IuIs-10" target="DdwkhaqYkL6zV_W3IuIs-14">
          <mxGeometry width="50" height="50" relative="1" as="geometry">
            <mxPoint x="710" y="1631" as="sourcePoint" />
            <mxPoint x="450" y="1601" as="targetPoint" />
          </mxGeometry>
        </mxCell>
        <mxCell id="DdwkhaqYkL6zV_W3IuIs-54" value="*" style="text;align=center;fontStyle=1;verticalAlign=middle;spacingLeft=3;spacingRight=3;strokeColor=none;rotatable=0;points=[[0,0.5],[1,0.5]];portConstraint=eastwest;html=1;fontSize=20;labelBackgroundColor=none;" vertex="1" parent="1">
          <mxGeometry x="250" y="1591" width="80" height="26" as="geometry" />
        </mxCell>
        <mxCell id="DdwkhaqYkL6zV_W3IuIs-55" value="1" style="text;align=center;fontStyle=1;verticalAlign=middle;spacingLeft=3;spacingRight=3;strokeColor=none;rotatable=0;points=[[0,0.5],[1,0.5]];portConstraint=eastwest;html=1;fontSize=26;labelBackgroundColor=none;" vertex="1" parent="1">
          <mxGeometry x="410" y="1571" width="80" height="26" as="geometry" />
        </mxCell>
        <mxCell id="DdwkhaqYkL6zV_W3IuIs-56" value="*" style="text;align=center;fontStyle=1;verticalAlign=middle;spacingLeft=3;spacingRight=3;strokeColor=none;rotatable=0;points=[[0,0.5],[1,0.5]];portConstraint=eastwest;html=1;fontSize=20;labelBackgroundColor=none;" vertex="1" parent="1">
          <mxGeometry x="790" y="1531" width="80" height="26" as="geometry" />
        </mxCell>
        <mxCell id="DdwkhaqYkL6zV_W3IuIs-57" value="*" style="text;align=center;fontStyle=1;verticalAlign=middle;spacingLeft=3;spacingRight=3;strokeColor=none;rotatable=0;points=[[0,0.5],[1,0.5]];portConstraint=eastwest;html=1;fontSize=20;labelBackgroundColor=none;" vertex="1" parent="1">
          <mxGeometry x="250" y="1541" width="80" height="26" as="geometry" />
        </mxCell>
        <mxCell id="DdwkhaqYkL6zV_W3IuIs-58" value="" style="endArrow=none;html=1;rounded=0;exitX=0.75;exitY=0;exitDx=0;exitDy=0;entryX=0;entryY=0.5;entryDx=0;entryDy=0;labelBackgroundColor=none;fontColor=default;" edge="1" parent="1" source="DdwkhaqYkL6zV_W3IuIs-33" target="DdwkhaqYkL6zV_W3IuIs-32">
          <mxGeometry width="50" height="50" relative="1" as="geometry">
            <mxPoint x="800" y="1831" as="sourcePoint" />
            <mxPoint x="850" y="1781" as="targetPoint" />
          </mxGeometry>
        </mxCell>
        <mxCell id="DdwkhaqYkL6zV_W3IuIs-59" value="1" style="text;align=center;fontStyle=1;verticalAlign=middle;spacingLeft=3;spacingRight=3;strokeColor=none;rotatable=0;points=[[0,0.5],[1,0.5]];portConstraint=eastwest;html=1;fontSize=26;labelBackgroundColor=none;" vertex="1" parent="1">
          <mxGeometry x="200" y="1935" width="80" height="26" as="geometry" />
        </mxCell>
        <mxCell id="DdwkhaqYkL6zV_W3IuIs-60" value="1" style="text;align=center;fontStyle=1;verticalAlign=middle;spacingLeft=3;spacingRight=3;strokeColor=none;rotatable=0;points=[[0,0.5],[1,0.5]];portConstraint=eastwest;html=1;fontSize=26;labelBackgroundColor=none;" vertex="1" parent="1">
          <mxGeometry x="670" y="1791" width="80" height="26" as="geometry" />
        </mxCell>
        <mxCell id="DdwkhaqYkL6zV_W3IuIs-61" value="" style="endArrow=none;html=1;rounded=0;entryX=0.5;entryY=0;entryDx=0;entryDy=0;labelBackgroundColor=none;fontColor=default;" edge="1" parent="1" source="DdwkhaqYkL6zV_W3IuIs-64" target="DdwkhaqYkL6zV_W3IuIs-17">
          <mxGeometry width="50" height="50" relative="1" as="geometry">
            <mxPoint x="670" y="1390" as="sourcePoint" />
            <mxPoint x="655" y="1959.79" as="targetPoint" />
            <Array as="points">
              <mxPoint x="740" y="1879.79" />
            </Array>
          </mxGeometry>
        </mxCell>
        <mxCell id="DdwkhaqYkL6zV_W3IuIs-62" value="1" style="text;align=center;fontStyle=1;verticalAlign=middle;spacingLeft=3;spacingRight=3;strokeColor=none;rotatable=0;points=[[0,0.5],[1,0.5]];portConstraint=eastwest;html=1;fontSize=26;labelBackgroundColor=none;" vertex="1" parent="1">
          <mxGeometry x="550" y="1931" width="80" height="26" as="geometry" />
        </mxCell>
        <mxCell id="DdwkhaqYkL6zV_W3IuIs-63" value="" style="endArrow=none;html=1;rounded=0;entryX=0.5;entryY=0;entryDx=0;entryDy=0;labelBackgroundColor=none;fontColor=default;" edge="1" parent="1" target="DdwkhaqYkL6zV_W3IuIs-64">
          <mxGeometry width="50" height="50" relative="1" as="geometry">
            <mxPoint x="670" y="1390" as="sourcePoint" />
            <mxPoint x="550" y="1961" as="targetPoint" />
            <Array as="points" />
          </mxGeometry>
        </mxCell>
        <mxCell id="DdwkhaqYkL6zV_W3IuIs-64" value="1" style="text;align=center;fontStyle=1;verticalAlign=middle;spacingLeft=3;spacingRight=3;strokeColor=none;rotatable=0;points=[[0,0.5],[1,0.5]];portConstraint=eastwest;html=1;fontSize=26;labelBackgroundColor=none;" vertex="1" parent="1">
          <mxGeometry x="640" y="1385" width="80" height="26" as="geometry" />
        </mxCell>
        <mxCell id="DdwkhaqYkL6zV_W3IuIs-65" value="" style="endArrow=diamondThin;endFill=1;endSize=24;html=1;rounded=0;exitX=0;exitY=0.5;exitDx=0;exitDy=0;entryX=0.999;entryY=0.412;entryDx=0;entryDy=0;entryPerimeter=0;labelBackgroundColor=none;fontColor=default;" edge="1" parent="1" source="DdwkhaqYkL6zV_W3IuIs-26" target="DdwkhaqYkL6zV_W3IuIs-30">
          <mxGeometry width="160" relative="1" as="geometry">
            <mxPoint x="560" y="1941" as="sourcePoint" />
            <mxPoint x="990" y="1640" as="targetPoint" />
          </mxGeometry>
        </mxCell>
        <mxCell id="DdwkhaqYkL6zV_W3IuIs-66" value="" style="endArrow=diamondThin;endFill=1;endSize=24;html=1;rounded=0;entryX=0.999;entryY=0.412;entryDx=0;entryDy=0;entryPerimeter=0;exitX=0;exitY=0.5;exitDx=0;exitDy=0;labelBackgroundColor=none;fontColor=default;" edge="1" parent="1" source="DdwkhaqYkL6zV_W3IuIs-43">
          <mxGeometry width="160" relative="1" as="geometry">
            <mxPoint x="820" y="2071" as="sourcePoint" />
            <mxPoint x="670" y="2071" as="targetPoint" />
            <Array as="points">
              <mxPoint x="650" y="2071" />
            </Array>
          </mxGeometry>
        </mxCell>
        <mxCell id="DdwkhaqYkL6zV_W3IuIs-67" value="" style="endArrow=diamondThin;endFill=0;endSize=24;html=1;rounded=0;exitX=0;exitY=0.5;exitDx=0;exitDy=0;entryX=0.988;entryY=0.278;entryDx=0;entryDy=0;entryPerimeter=0;labelBackgroundColor=none;fontColor=default;" edge="1" parent="1" source="DdwkhaqYkL6zV_W3IuIs-14" target="DdwkhaqYkL6zV_W3IuIs-10">
          <mxGeometry width="160" relative="1" as="geometry">
            <mxPoint x="280" y="1721" as="sourcePoint" />
            <mxPoint x="440" y="1721" as="targetPoint" />
          </mxGeometry>
        </mxCell>
      </root>
    </mxGraphModel>
  </diagram>
</mxfile>
